G04*
G04 #@! TF.GenerationSoftware,Altium Limited,Altium Designer,22.7.1 (60)*
G04*
G04 Layer_Color=16711935*
%FSLAX44Y44*%
%MOMM*%
G71*
G04*
G04 #@! TF.SameCoordinates,DE4C8CE6-A766-4DDB-9AE5-6163675FD0FB*
G04*
G04*
G04 #@! TF.FilePolarity,Positive*
G04*
G01*
G75*
%ADD97C,0.0000*%
D97*
X423476Y62481D02*
X426524D01*
X423476D02*
X426524D01*
X428476D02*
X431524D01*
X428476D02*
X431524D01*
X433476D02*
X436524D01*
X433476D02*
X436524D01*
X438476D02*
X441524D01*
X438476D02*
X441524D01*
X443476D02*
X446524D01*
X443476D02*
X446524D01*
X448476D02*
X451524D01*
X448476D02*
X451524D01*
X453476D02*
X456524D01*
X453476D02*
X456524D01*
X465019Y70976D02*
Y74024D01*
Y70976D02*
Y74024D01*
Y75976D02*
Y79024D01*
Y75976D02*
Y79024D01*
X465019Y84024D02*
X465019Y80976D01*
X465019Y84024D02*
X465019Y80976D01*
X465019Y85976D02*
Y89024D01*
Y85976D02*
Y89024D01*
Y90976D02*
Y94024D01*
Y90976D02*
Y94024D01*
X465019Y95976D02*
Y99024D01*
Y95976D02*
Y99024D01*
Y100976D02*
Y104024D01*
Y100976D02*
Y104024D01*
X453476Y112519D02*
X456524D01*
X453476D02*
X456524D01*
X448476D02*
X451524D01*
X448476D02*
X451524D01*
X443476D02*
X446524D01*
X443476D02*
X446524D01*
X438476D02*
X441524D01*
X438476D02*
X441524D01*
X433476D02*
X436524D01*
X433476D02*
X436524D01*
X428476D02*
X431524D01*
X428476D02*
X431524D01*
X423476D02*
X426524D01*
X423476D02*
X426524D01*
X414981Y100976D02*
Y104024D01*
Y100976D02*
Y104024D01*
Y95976D02*
Y99024D01*
Y95976D02*
Y99024D01*
X414981Y90976D02*
Y94024D01*
Y90976D02*
Y94024D01*
Y85976D02*
Y89024D01*
Y85976D02*
Y89024D01*
Y80976D02*
Y84024D01*
Y80976D02*
Y84024D01*
X414981Y75976D02*
Y79024D01*
Y75976D02*
Y79024D01*
Y74024D02*
X414981Y70976D01*
X414981Y74024D02*
X414981Y70976D01*
X414981Y112519D02*
X465019D01*
X414981Y62481D02*
Y112519D01*
Y62481D02*
X465019D01*
Y112519D01*
M02*
