M48
;Layer_Color=9474304
;FILE_FORMAT=4:4
METRIC,LZ
;TYPE=PLATED
T1F00S00C0.3000
T2F00S00C0.3050
T4F00S00C0.8000
T5F00S00C1.1000
T6F00S00C1.8000
T7F00S00C2.8000
%
T01
X00074989Y00174996
Y00185004
X00084996
Y00174996
X00095004
X00104986
Y00185004
X00095004
X00304251Y00183655
X00314258
X00324266
X00334248
Y00173647
X00324266
X00314258
X00304251
T02
X00099754Y0014
X00106256
X00112758
X00125738
X001575Y00145
X001775Y001475
X001875Y001575
X00185Y001725
X002025Y0017
X00205Y00155
X001975Y00145
X002075Y001375
X00215Y00145
Y001275
X0021Y001225
X002125Y001125
X002075Y001025
X00215Y000975
X0021Y0009
X001975Y00085
Y000775
Y0007
X0019
Y000775
Y00085
X00214693Y00063247
X00221807Y00057941
X00215898Y00051068
X00221807Y00039732
X0022229Y00026106
X00236254Y000335
X0024875
X00261247
X00263893Y00011756
X00253884Y00013685
X00235916Y00013082
X00237742Y00073358
X00244463Y00072549
X00251793Y00074206
X00257581Y00063317
X00264869Y00063884
X00263978Y00057487
X00286528Y00048669
X00294941Y00039543
X00312623Y00036691
X00324031Y00037974
X00338433Y00040398
X003375Y000525
X0033868Y00096502
X00328087Y00090183
X00321024Y00097803
X00304855Y00099847
X00307643Y00087395
X00295369Y00073908
X00304383Y0012513
X00311996Y00132993
X0029028Y00133242
X00324226Y00117393
X00340076Y00119764
X0034276Y00206736
Y00212423
X00297243
Y00206736
X00275Y002459
X0026Y002425
X00255Y0018
Y0017
Y0016
Y0015
X00225Y001525
X0022Y00165
Y00175
X002325Y00165
X001675Y001625
X00155Y002425
X00125Y00231
X0011276Y00212423
Y00206736
X00067243
Y00212423
X000675Y002291
X000425Y002459
X0023Y00335
X0024
X00355Y00244
Y00231
X0038618Y002375
X003925
X0041Y002075
X00405Y002025
X0041Y001975
Y001875
X0041Y001725
X004425Y0018
X0045
X004575Y001825
X00459018Y00188877
X004525Y001875
X00445
X00435Y0015
X00434865Y00124038
X00443353Y00130499
X00471478Y00131259
X00472364Y00121251
X00482246Y00120871
X00483006Y00132146
X00475Y001525
X004675
X0046
X0049Y001625
Y001775
Y001925
X004575Y00235
X00452473Y0023883
X00447466Y00234974
X0044242Y00238779
X0045Y002525
X004625Y0028
X0048Y0029
Y0031008
Y0033008
X00495Y0008
X0049Y00075
X00485Y00065
X004675Y00055
X00445Y0005
X0044Y00055
X004225Y000525
X0043819Y00081394
X00439198Y00089966
X00444997Y00096143
X00449787Y00087697
X00446888Y00077361
X00432769Y00097151
X00386444Y0009929
X00371762Y00098732
X00379382Y00085723
X00371898Y00075602
X00395Y0007
X003975Y001175
X00389123Y00120513
X00379513Y00116519
X0036566Y00118641
X00356924Y00117393
X00349274Y00100033
X00356708Y00090183
T04
X0032021Y0004852
X0037979
T05
X000225Y000175
X001325Y000175
T06
X000525Y001175
X001025
T07
X00205Y00295
X005075Y000275
Y003825
M30
