G04*
G04 #@! TF.GenerationSoftware,Altium Limited,Altium Designer,22.7.1 (60)*
G04*
G04 Layer_Color=8388736*
%FSLAX44Y44*%
%MOMM*%
G71*
G04*
G04 #@! TF.SameCoordinates,DE4C8CE6-A766-4DDB-9AE5-6163675FD0FB*
G04*
G04*
G04 #@! TF.FilePolarity,Negative*
G04*
G01*
G75*
G04:AMPARAMS|DCode=48|XSize=1.5866mm|YSize=1.8296mm|CornerRadius=0.422mm|HoleSize=0mm|Usage=FLASHONLY|Rotation=180.000|XOffset=0mm|YOffset=0mm|HoleType=Round|Shape=RoundedRectangle|*
%AMROUNDEDRECTD48*
21,1,1.5866,0.9855,0,0,180.0*
21,1,0.7425,1.8296,0,0,180.0*
1,1,0.8441,-0.3713,0.4927*
1,1,0.8441,0.3713,0.4927*
1,1,0.8441,0.3713,-0.4927*
1,1,0.8441,-0.3713,-0.4927*
%
%ADD48ROUNDEDRECTD48*%
G04:AMPARAMS|DCode=49|XSize=0.4445mm|YSize=1.8339mm|CornerRadius=0.1365mm|HoleSize=0mm|Usage=FLASHONLY|Rotation=180.000|XOffset=0mm|YOffset=0mm|HoleType=Round|Shape=RoundedRectangle|*
%AMROUNDEDRECTD49*
21,1,0.4445,1.5608,0,0,180.0*
21,1,0.1715,1.8339,0,0,180.0*
1,1,0.2731,-0.0857,0.7804*
1,1,0.2731,0.0857,0.7804*
1,1,0.2731,0.0857,-0.7804*
1,1,0.2731,-0.0857,-0.7804*
%
%ADD49ROUNDEDRECTD49*%
G04:AMPARAMS|DCode=50|XSize=6.3017mm|YSize=2.8524mm|CornerRadius=0.3259mm|HoleSize=0mm|Usage=FLASHONLY|Rotation=180.000|XOffset=0mm|YOffset=0mm|HoleType=Round|Shape=RoundedRectangle|*
%AMROUNDEDRECTD50*
21,1,6.3017,2.2007,0,0,180.0*
21,1,5.6500,2.8524,0,0,180.0*
1,1,0.6518,-2.8250,1.1003*
1,1,0.6518,2.8250,1.1003*
1,1,0.6518,2.8250,-1.1003*
1,1,0.6518,-2.8250,-1.1003*
%
%ADD50ROUNDEDRECTD50*%
G04:AMPARAMS|DCode=51|XSize=0.6604mm|YSize=0.6604mm|CornerRadius=0.2032mm|HoleSize=0mm|Usage=FLASHONLY|Rotation=90.000|XOffset=0mm|YOffset=0mm|HoleType=Round|Shape=RoundedRectangle|*
%AMROUNDEDRECTD51*
21,1,0.6604,0.2540,0,0,90.0*
21,1,0.2540,0.6604,0,0,90.0*
1,1,0.4064,0.1270,0.1270*
1,1,0.4064,0.1270,-0.1270*
1,1,0.4064,-0.1270,-0.1270*
1,1,0.4064,-0.1270,0.1270*
%
%ADD51ROUNDEDRECTD51*%
G04:AMPARAMS|DCode=52|XSize=0.6604mm|YSize=0.6604mm|CornerRadius=0.2032mm|HoleSize=0mm|Usage=FLASHONLY|Rotation=0.000|XOffset=0mm|YOffset=0mm|HoleType=Round|Shape=RoundedRectangle|*
%AMROUNDEDRECTD52*
21,1,0.6604,0.2540,0,0,0.0*
21,1,0.2540,0.6604,0,0,0.0*
1,1,0.4064,0.1270,-0.1270*
1,1,0.4064,-0.1270,-0.1270*
1,1,0.4064,-0.1270,0.1270*
1,1,0.4064,0.1270,0.1270*
%
%ADD52ROUNDEDRECTD52*%
G04:AMPARAMS|DCode=53|XSize=0.5588mm|YSize=1.2192mm|CornerRadius=0.2032mm|HoleSize=0mm|Usage=FLASHONLY|Rotation=90.000|XOffset=0mm|YOffset=0mm|HoleType=Round|Shape=RoundedRectangle|*
%AMROUNDEDRECTD53*
21,1,0.5588,0.8128,0,0,90.0*
21,1,0.1524,1.2192,0,0,90.0*
1,1,0.4064,0.4064,0.0762*
1,1,0.4064,0.4064,-0.0762*
1,1,0.4064,-0.4064,-0.0762*
1,1,0.4064,-0.4064,0.0762*
%
%ADD53ROUNDEDRECTD53*%
G04:AMPARAMS|DCode=54|XSize=0.5588mm|YSize=1.2192mm|CornerRadius=0.2032mm|HoleSize=0mm|Usage=FLASHONLY|Rotation=0.000|XOffset=0mm|YOffset=0mm|HoleType=Round|Shape=RoundedRectangle|*
%AMROUNDEDRECTD54*
21,1,0.5588,0.8128,0,0,0.0*
21,1,0.1524,1.2192,0,0,0.0*
1,1,0.4064,0.0762,-0.4064*
1,1,0.4064,-0.0762,-0.4064*
1,1,0.4064,-0.0762,0.4064*
1,1,0.4064,0.0762,0.4064*
%
%ADD54ROUNDEDRECTD54*%
G04:AMPARAMS|DCode=55|XSize=2.8524mm|YSize=2.9524mm|CornerRadius=0.4137mm|HoleSize=0mm|Usage=FLASHONLY|Rotation=180.000|XOffset=0mm|YOffset=0mm|HoleType=Round|Shape=RoundedRectangle|*
%AMROUNDEDRECTD55*
21,1,2.8524,2.1250,0,0,180.0*
21,1,2.0250,2.9524,0,0,180.0*
1,1,0.8274,-1.0125,1.0625*
1,1,0.8274,1.0125,1.0625*
1,1,0.8274,1.0125,-1.0625*
1,1,0.8274,-1.0125,-1.0625*
%
%ADD55ROUNDEDRECTD55*%
G04:AMPARAMS|DCode=56|XSize=0.4616mm|YSize=1.0016mm|CornerRadius=0.1408mm|HoleSize=0mm|Usage=FLASHONLY|Rotation=90.000|XOffset=0mm|YOffset=0mm|HoleType=Round|Shape=RoundedRectangle|*
%AMROUNDEDRECTD56*
21,1,0.4616,0.7200,0,0,90.0*
21,1,0.1800,1.0016,0,0,90.0*
1,1,0.2816,0.3600,0.0900*
1,1,0.2816,0.3600,-0.0900*
1,1,0.2816,-0.3600,-0.0900*
1,1,0.2816,-0.3600,0.0900*
%
%ADD56ROUNDEDRECTD56*%
G04:AMPARAMS|DCode=57|XSize=0.701mm|YSize=1.5519mm|CornerRadius=0.2007mm|HoleSize=0mm|Usage=FLASHONLY|Rotation=0.000|XOffset=0mm|YOffset=0mm|HoleType=Round|Shape=RoundedRectangle|*
%AMROUNDEDRECTD57*
21,1,0.7010,1.1506,0,0,0.0*
21,1,0.2997,1.5519,0,0,0.0*
1,1,0.4013,0.1499,-0.5753*
1,1,0.4013,-0.1499,-0.5753*
1,1,0.4013,-0.1499,0.5753*
1,1,0.4013,0.1499,0.5753*
%
%ADD57ROUNDEDRECTD57*%
G04:AMPARAMS|DCode=58|XSize=0.4013mm|YSize=1.5519mm|CornerRadius=0.1257mm|HoleSize=0mm|Usage=FLASHONLY|Rotation=0.000|XOffset=0mm|YOffset=0mm|HoleType=Round|Shape=RoundedRectangle|*
%AMROUNDEDRECTD58*
21,1,0.4013,1.3005,0,0,0.0*
21,1,0.1499,1.5519,0,0,0.0*
1,1,0.2515,0.0749,-0.6502*
1,1,0.2515,-0.0749,-0.6502*
1,1,0.2515,-0.0749,0.6502*
1,1,0.2515,0.0749,0.6502*
%
%ADD58ROUNDEDRECTD58*%
G04:AMPARAMS|DCode=59|XSize=0.8016mm|YSize=1.4016mm|CornerRadius=0.2258mm|HoleSize=0mm|Usage=FLASHONLY|Rotation=270.000|XOffset=0mm|YOffset=0mm|HoleType=Round|Shape=RoundedRectangle|*
%AMROUNDEDRECTD59*
21,1,0.8016,0.9500,0,0,270.0*
21,1,0.3500,1.4016,0,0,270.0*
1,1,0.4516,-0.4750,-0.1750*
1,1,0.4516,-0.4750,0.1750*
1,1,0.4516,0.4750,0.1750*
1,1,0.4516,0.4750,-0.1750*
%
%ADD59ROUNDEDRECTD59*%
G04:AMPARAMS|DCode=60|XSize=1.4016mm|YSize=3.1016mm|CornerRadius=0.5708mm|HoleSize=0mm|Usage=FLASHONLY|Rotation=0.000|XOffset=0mm|YOffset=0mm|HoleType=Round|Shape=RoundedRectangle|*
%AMROUNDEDRECTD60*
21,1,1.4016,1.9600,0,0,0.0*
21,1,0.2600,3.1016,0,0,0.0*
1,1,1.1416,0.1300,-0.9800*
1,1,1.1416,-0.1300,-0.9800*
1,1,1.1416,-0.1300,0.9800*
1,1,1.1416,0.1300,0.9800*
%
%ADD60ROUNDEDRECTD60*%
G04:AMPARAMS|DCode=61|XSize=0.7016mm|YSize=1.8016mm|CornerRadius=0.2908mm|HoleSize=0mm|Usage=FLASHONLY|Rotation=180.000|XOffset=0mm|YOffset=0mm|HoleType=Round|Shape=RoundedRectangle|*
%AMROUNDEDRECTD61*
21,1,0.7016,1.2200,0,0,180.0*
21,1,0.1200,1.8016,0,0,180.0*
1,1,0.5816,-0.0600,0.6100*
1,1,0.5816,0.0600,0.6100*
1,1,0.5816,0.0600,-0.6100*
1,1,0.5816,-0.0600,-0.6100*
%
%ADD61ROUNDEDRECTD61*%
G04:AMPARAMS|DCode=62|XSize=1.4016mm|YSize=0.8016mm|CornerRadius=0.2258mm|HoleSize=0mm|Usage=FLASHONLY|Rotation=270.000|XOffset=0mm|YOffset=0mm|HoleType=Round|Shape=RoundedRectangle|*
%AMROUNDEDRECTD62*
21,1,1.4016,0.3500,0,0,270.0*
21,1,0.9500,0.8016,0,0,270.0*
1,1,0.4516,-0.1750,-0.4750*
1,1,0.4516,-0.1750,0.4750*
1,1,0.4516,0.1750,0.4750*
1,1,0.4516,0.1750,-0.4750*
%
%ADD62ROUNDEDRECTD62*%
G04:AMPARAMS|DCode=63|XSize=0.9144mm|YSize=0.9144mm|CornerRadius=0.2667mm|HoleSize=0mm|Usage=FLASHONLY|Rotation=90.000|XOffset=0mm|YOffset=0mm|HoleType=Round|Shape=RoundedRectangle|*
%AMROUNDEDRECTD63*
21,1,0.9144,0.3810,0,0,90.0*
21,1,0.3810,0.9144,0,0,90.0*
1,1,0.5334,0.1905,0.1905*
1,1,0.5334,0.1905,-0.1905*
1,1,0.5334,-0.1905,-0.1905*
1,1,0.5334,-0.1905,0.1905*
%
%ADD63ROUNDEDRECTD63*%
G04:AMPARAMS|DCode=64|XSize=0.3516mm|YSize=0.8016mm|CornerRadius=0.1133mm|HoleSize=0mm|Usage=FLASHONLY|Rotation=90.000|XOffset=0mm|YOffset=0mm|HoleType=Round|Shape=RoundedRectangle|*
%AMROUNDEDRECTD64*
21,1,0.3516,0.5750,0,0,90.0*
21,1,0.1250,0.8016,0,0,90.0*
1,1,0.2266,0.2875,0.0625*
1,1,0.2266,0.2875,-0.0625*
1,1,0.2266,-0.2875,-0.0625*
1,1,0.2266,-0.2875,0.0625*
%
%ADD64ROUNDEDRECTD64*%
G04:AMPARAMS|DCode=65|XSize=0.3516mm|YSize=1.5516mm|CornerRadius=0.1133mm|HoleSize=0mm|Usage=FLASHONLY|Rotation=0.000|XOffset=0mm|YOffset=0mm|HoleType=Round|Shape=RoundedRectangle|*
%AMROUNDEDRECTD65*
21,1,0.3516,1.3250,0,0,0.0*
21,1,0.1250,1.5516,0,0,0.0*
1,1,0.2266,0.0625,-0.6625*
1,1,0.2266,-0.0625,-0.6625*
1,1,0.2266,-0.0625,0.6625*
1,1,0.2266,0.0625,0.6625*
%
%ADD65ROUNDEDRECTD65*%
G04:AMPARAMS|DCode=66|XSize=0.3516mm|YSize=1.9516mm|CornerRadius=0.1133mm|HoleSize=0mm|Usage=FLASHONLY|Rotation=0.000|XOffset=0mm|YOffset=0mm|HoleType=Round|Shape=RoundedRectangle|*
%AMROUNDEDRECTD66*
21,1,0.3516,1.7250,0,0,0.0*
21,1,0.1250,1.9516,0,0,0.0*
1,1,0.2266,0.0625,-0.8625*
1,1,0.2266,-0.0625,-0.8625*
1,1,0.2266,-0.0625,0.8625*
1,1,0.2266,0.0625,0.8625*
%
%ADD66ROUNDEDRECTD66*%
G04:AMPARAMS|DCode=67|XSize=0.3516mm|YSize=0.8016mm|CornerRadius=0.1133mm|HoleSize=0mm|Usage=FLASHONLY|Rotation=180.000|XOffset=0mm|YOffset=0mm|HoleType=Round|Shape=RoundedRectangle|*
%AMROUNDEDRECTD67*
21,1,0.3516,0.5750,0,0,180.0*
21,1,0.1250,0.8016,0,0,180.0*
1,1,0.2266,-0.0625,0.2875*
1,1,0.2266,0.0625,0.2875*
1,1,0.2266,0.0625,-0.2875*
1,1,0.2266,-0.0625,-0.2875*
%
%ADD67ROUNDEDRECTD67*%
G04:AMPARAMS|DCode=68|XSize=1.7016mm|YSize=3.6016mm|CornerRadius=0.4508mm|HoleSize=0mm|Usage=FLASHONLY|Rotation=0.000|XOffset=0mm|YOffset=0mm|HoleType=Round|Shape=RoundedRectangle|*
%AMROUNDEDRECTD68*
21,1,1.7016,2.7000,0,0,0.0*
21,1,0.8000,3.6016,0,0,0.0*
1,1,0.9016,0.4000,-1.3500*
1,1,0.9016,-0.4000,-1.3500*
1,1,0.9016,-0.4000,1.3500*
1,1,0.9016,0.4000,1.3500*
%
%ADD68ROUNDEDRECTD68*%
G04:AMPARAMS|DCode=69|XSize=0.7524mm|YSize=1.1524mm|CornerRadius=0.2262mm|HoleSize=0mm|Usage=FLASHONLY|Rotation=270.000|XOffset=0mm|YOffset=0mm|HoleType=Round|Shape=RoundedRectangle|*
%AMROUNDEDRECTD69*
21,1,0.7524,0.7000,0,0,270.0*
21,1,0.3000,1.1524,0,0,270.0*
1,1,0.4524,-0.3500,-0.1500*
1,1,0.4524,-0.3500,0.1500*
1,1,0.4524,0.3500,0.1500*
1,1,0.4524,0.3500,-0.1500*
%
%ADD69ROUNDEDRECTD69*%
G04:AMPARAMS|DCode=70|XSize=0.8274mm|YSize=0.4024mm|CornerRadius=0.1387mm|HoleSize=0mm|Usage=FLASHONLY|Rotation=270.000|XOffset=0mm|YOffset=0mm|HoleType=Round|Shape=RoundedRectangle|*
%AMROUNDEDRECTD70*
21,1,0.8274,0.1250,0,0,270.0*
21,1,0.5500,0.4024,0,0,270.0*
1,1,0.2774,-0.0625,-0.2750*
1,1,0.2774,-0.0625,0.2750*
1,1,0.2774,0.0625,0.2750*
1,1,0.2774,0.0625,-0.2750*
%
%ADD70ROUNDEDRECTD70*%
G04:AMPARAMS|DCode=71|XSize=0.4616mm|YSize=1.0016mm|CornerRadius=0.1408mm|HoleSize=0mm|Usage=FLASHONLY|Rotation=0.000|XOffset=0mm|YOffset=0mm|HoleType=Round|Shape=RoundedRectangle|*
%AMROUNDEDRECTD71*
21,1,0.4616,0.7200,0,0,0.0*
21,1,0.1800,1.0016,0,0,0.0*
1,1,0.2816,0.0900,-0.3600*
1,1,0.2816,-0.0900,-0.3600*
1,1,0.2816,-0.0900,0.3600*
1,1,0.2816,0.0900,0.3600*
%
%ADD71ROUNDEDRECTD71*%
G04:AMPARAMS|DCode=72|XSize=1.1176mm|YSize=2.3012mm|CornerRadius=0.2032mm|HoleSize=0mm|Usage=FLASHONLY|Rotation=90.000|XOffset=0mm|YOffset=0mm|HoleType=Round|Shape=RoundedRectangle|*
%AMROUNDEDRECTD72*
21,1,1.1176,1.8948,0,0,90.0*
21,1,0.7112,2.3012,0,0,90.0*
1,1,0.4064,0.9474,0.3556*
1,1,0.4064,0.9474,-0.3556*
1,1,0.4064,-0.9474,-0.3556*
1,1,0.4064,-0.9474,0.3556*
%
%ADD72ROUNDEDRECTD72*%
G04:AMPARAMS|DCode=73|XSize=3.1mm|YSize=4.1mm|CornerRadius=0.8mm|HoleSize=0mm|Usage=FLASHONLY|Rotation=180.000|XOffset=0mm|YOffset=0mm|HoleType=Round|Shape=RoundedRectangle|*
%AMROUNDEDRECTD73*
21,1,3.1000,2.5000,0,0,180.0*
21,1,1.5000,4.1000,0,0,180.0*
1,1,1.6000,-0.7500,1.2500*
1,1,1.6000,0.7500,1.2500*
1,1,1.6000,0.7500,-1.2500*
1,1,1.6000,-0.7500,-1.2500*
%
%ADD73ROUNDEDRECTD73*%
G04:AMPARAMS|DCode=74|XSize=4.2164mm|YSize=4.2164mm|CornerRadius=0.4826mm|HoleSize=0mm|Usage=FLASHONLY|Rotation=270.000|XOffset=0mm|YOffset=0mm|HoleType=Round|Shape=RoundedRectangle|*
%AMROUNDEDRECTD74*
21,1,4.2164,3.2512,0,0,270.0*
21,1,3.2512,4.2164,0,0,270.0*
1,1,0.9652,-1.6256,-1.6256*
1,1,0.9652,-1.6256,1.6256*
1,1,0.9652,1.6256,1.6256*
1,1,0.9652,1.6256,-1.6256*
%
%ADD74ROUNDEDRECTD74*%
G04:AMPARAMS|DCode=75|XSize=0.8274mm|YSize=0.4024mm|CornerRadius=0.1387mm|HoleSize=0mm|Usage=FLASHONLY|Rotation=0.000|XOffset=0mm|YOffset=0mm|HoleType=Round|Shape=RoundedRectangle|*
%AMROUNDEDRECTD75*
21,1,0.8274,0.1250,0,0,0.0*
21,1,0.5500,0.4024,0,0,0.0*
1,1,0.2774,0.2750,-0.0625*
1,1,0.2774,-0.2750,-0.0625*
1,1,0.2774,-0.2750,0.0625*
1,1,0.2774,0.2750,0.0625*
%
%ADD75ROUNDEDRECTD75*%
%ADD76C,4.8000*%
%ADD77C,0.8000*%
%ADD78O,1.1024X1.7018*%
%ADD79O,1.1024X2.2022*%
%ADD80C,1.9016*%
%ADD81C,2.6016*%
%ADD82C,0.8032*%
G36*
X104999Y272068D02*
X104999Y270387D01*
X104343Y267090D01*
X103056Y263984D01*
X101189Y261189D01*
X100000Y260000D01*
X100000D01*
X100000Y260000D01*
X99398Y259398D01*
X99122Y259094D01*
X98140Y258010D01*
X96062Y254900D01*
X94631Y251444D01*
X93901Y247776D01*
X93809Y245906D01*
X93809Y245906D01*
X93809Y245906D01*
Y242096D01*
X86189D01*
X86189Y248594D01*
X86129Y249828D01*
X85647Y252250D01*
X84702Y254531D01*
X83330Y256584D01*
X82500Y257500D01*
X82500Y257500D01*
X80301Y259699D01*
X79040Y260960D01*
X77059Y263925D01*
X75694Y267219D01*
X74999Y270717D01*
Y272500D01*
Y297500D01*
X104999D01*
X104999Y272068D01*
D02*
G37*
G36*
X140000Y272500D02*
Y270717D01*
X139304Y267218D01*
X137939Y263923D01*
X135958Y260958D01*
X134697Y259697D01*
Y259697D01*
X134697Y259697D01*
X130195Y255195D01*
X128218Y253874D01*
X126021Y252964D01*
X123689Y252500D01*
X112280D01*
X111789Y252476D01*
X110825Y252284D01*
X109917Y251908D01*
X109100Y251362D01*
X108736Y251032D01*
X108736Y251032D01*
X108218Y250514D01*
X107788Y250040D01*
X107079Y248978D01*
X106590Y247798D01*
X106341Y246545D01*
X106309Y245906D01*
Y242096D01*
X98689D01*
Y247162D01*
X99179Y249626D01*
X100141Y251948D01*
X101537Y254037D01*
X102425Y254925D01*
X102425Y254925D01*
X102425Y254925D01*
X105000Y257500D01*
X106125Y258741D01*
X107984Y261524D01*
X109265Y264615D01*
X109918Y267898D01*
X110000Y269571D01*
X110000Y269571D01*
X110000Y270744D01*
Y297500D01*
X140000D01*
Y272500D01*
D02*
G37*
G36*
X70000Y272500D02*
X70058Y271317D01*
X70520Y268996D01*
X71425Y266810D01*
X72707Y264891D01*
X72740Y264842D01*
X73536Y263964D01*
X73536Y263964D01*
X75000Y262500D01*
X76500Y261000D01*
X78858Y257472D01*
X80481Y253551D01*
X81309Y249390D01*
Y241908D01*
X81236Y241540D01*
X81092Y241193D01*
X80884Y240881D01*
X80751Y240749D01*
X80619Y240616D01*
X80307Y240408D01*
X79960Y240264D01*
X79592Y240191D01*
X75407D01*
X75295Y240213D01*
X74247Y240749D01*
X73689Y245906D01*
Y247129D01*
X73670Y247527D01*
X73514Y248308D01*
X73210Y249043D01*
X72768Y249705D01*
X72500Y250000D01*
X71879Y250562D01*
X70488Y251492D01*
X68942Y252132D01*
X67301Y252459D01*
X66465Y252500D01*
X55390D01*
X52092Y253156D01*
X48985Y254443D01*
X46189Y256311D01*
X45000Y257500D01*
X43811Y258689D01*
X41943Y261485D01*
X40656Y264592D01*
X40000Y267889D01*
Y269571D01*
Y297500D01*
X70000D01*
Y272500D01*
D02*
G37*
G36*
X106279Y233725D02*
X107108Y232484D01*
X107679Y231105D01*
X107971Y229641D01*
Y200847D01*
X104542D01*
Y216455D01*
X104472Y217875D01*
X103918Y220660D01*
X102831Y223283D01*
X101254Y225643D01*
X100300Y226696D01*
X99247Y227749D01*
X99114Y227881D01*
X98906Y228193D01*
X98762Y228540D01*
X98689Y228908D01*
Y232906D01*
X98815Y233044D01*
X99022Y233355D01*
X99165Y233700D01*
X99165Y233700D01*
X99238Y234066D01*
X99247Y234253D01*
X99247Y234253D01*
X105751D01*
X106279Y233725D01*
D02*
G37*
G36*
X93384Y234120D02*
X93592Y233808D01*
X93736Y233461D01*
X93809Y233093D01*
Y232906D01*
Y229096D01*
Y228908D01*
X93736Y228540D01*
X93592Y228193D01*
X93384Y227881D01*
X93251Y227749D01*
X93063Y227561D01*
X93063Y227561D01*
X92028Y226419D01*
X90318Y223859D01*
X89140Y221014D01*
X88539Y217995D01*
X88463Y216455D01*
Y200847D01*
X85034D01*
Y230118D01*
Y230694D01*
X85259Y231823D01*
X85700Y232888D01*
X86340Y233846D01*
X86747Y234253D01*
X93251D01*
X93384Y234120D01*
D02*
G37*
G36*
X79960Y234738D02*
X80307Y234594D01*
X80618Y234386D01*
X80751Y234253D01*
X81039Y233965D01*
X81491Y233289D01*
X81802Y232537D01*
X81961Y231739D01*
Y231332D01*
Y200847D01*
X78532D01*
Y217404D01*
X78461Y218838D01*
X77902Y221651D01*
X76804Y224300D01*
X75211Y226685D01*
X74247Y227749D01*
X74247Y234253D01*
X74247D01*
X74380Y234386D01*
X74692Y234594D01*
X75038Y234738D01*
X75406Y234811D01*
X79592D01*
X79960Y234738D01*
D02*
G37*
G36*
X334999Y272068D02*
X334999Y270387D01*
X334343Y267090D01*
X333056Y263984D01*
X331189Y261189D01*
X330000Y260000D01*
X330000D01*
X330000Y260000D01*
X329398Y259398D01*
X329122Y259094D01*
X328140Y258010D01*
X326062Y254900D01*
X324631Y251444D01*
X323901Y247776D01*
X323809Y245906D01*
X323809Y245906D01*
X323809Y245906D01*
Y242096D01*
X316189D01*
X316189Y248594D01*
X316129Y249828D01*
X315647Y252250D01*
X314702Y254531D01*
X313330Y256584D01*
X312500Y257500D01*
X312500Y257500D01*
X310301Y259699D01*
X309040Y260960D01*
X307059Y263925D01*
X305694Y267219D01*
X304999Y270717D01*
Y272500D01*
Y297500D01*
X334999D01*
X334999Y272068D01*
D02*
G37*
G36*
X370000Y272500D02*
Y270717D01*
X369304Y267218D01*
X367939Y263923D01*
X365958Y260958D01*
X364697Y259697D01*
Y259697D01*
X364697Y259697D01*
X360195Y255195D01*
X358218Y253874D01*
X356021Y252964D01*
X353689Y252500D01*
X342280D01*
X341788Y252476D01*
X340825Y252284D01*
X339917Y251908D01*
X339100Y251362D01*
X338736Y251032D01*
X338736Y251032D01*
X338218Y250514D01*
X337789Y250040D01*
X337079Y248978D01*
X336590Y247798D01*
X336341Y246545D01*
X336309Y245906D01*
Y242096D01*
X328689D01*
Y247162D01*
X329179Y249626D01*
X330141Y251948D01*
X331537Y254037D01*
X332425Y254925D01*
X332425Y254925D01*
X332425Y254925D01*
X335000Y257500D01*
X336125Y258741D01*
X337984Y261524D01*
X339265Y264615D01*
X339918Y267898D01*
X340000Y269571D01*
X340000Y269571D01*
X340000Y270744D01*
Y297500D01*
X370000D01*
Y272500D01*
D02*
G37*
G36*
X300000Y272500D02*
X300058Y271317D01*
X300520Y268996D01*
X301425Y266810D01*
X302707Y264891D01*
X302740Y264842D01*
X303536Y263964D01*
X303536Y263964D01*
X305000Y262500D01*
X306500Y261000D01*
X308858Y257472D01*
X310481Y253551D01*
X311309Y249390D01*
Y241908D01*
X311236Y241540D01*
X311092Y241193D01*
X310884Y240881D01*
X310751Y240749D01*
X310619Y240616D01*
X310307Y240408D01*
X309960Y240264D01*
X309592Y240191D01*
X305407D01*
X305295Y240213D01*
X304247Y240749D01*
X303689Y245906D01*
Y247129D01*
X303670Y247527D01*
X303514Y248308D01*
X303210Y249043D01*
X302768Y249705D01*
X302500Y250000D01*
X301879Y250562D01*
X300488Y251492D01*
X298942Y252132D01*
X297301Y252459D01*
X296465Y252500D01*
X285390D01*
X282092Y253156D01*
X278985Y254443D01*
X276189Y256311D01*
X275000Y257500D01*
X273811Y258689D01*
X271943Y261485D01*
X270656Y264592D01*
X270000Y267889D01*
Y269571D01*
Y297500D01*
X300000D01*
Y272500D01*
D02*
G37*
G36*
X336281Y233724D02*
X337110Y232482D01*
X337681Y231103D01*
X337972Y229640D01*
Y200845D01*
X334543D01*
Y216454D01*
X334473Y217873D01*
X333919Y220658D01*
X332833Y223281D01*
X331256Y225642D01*
X330301Y226695D01*
X329249Y227747D01*
X329116Y227880D01*
X328908Y228192D01*
X328764Y228538D01*
X328691Y228906D01*
Y232904D01*
X328816Y233043D01*
X329024Y233353D01*
X329167Y233698D01*
X329167Y233699D01*
X329240Y234064D01*
X329249Y234251D01*
X329249Y234251D01*
X335753D01*
X336281Y233724D01*
D02*
G37*
G36*
X323386Y234118D02*
X323594Y233806D01*
X323738Y233460D01*
X323811Y233092D01*
Y232904D01*
Y229094D01*
Y228906D01*
X323738Y228538D01*
X323594Y228192D01*
X323386Y227880D01*
X323253Y227747D01*
X323065Y227559D01*
X323065Y227559D01*
X322030Y226417D01*
X320319Y223857D01*
X319141Y221013D01*
X318541Y217993D01*
X318465Y216454D01*
Y200845D01*
X315036D01*
Y230116D01*
Y230692D01*
X315261Y231822D01*
X315702Y232886D01*
X316341Y233844D01*
X316749Y234251D01*
X323253D01*
X323386Y234118D01*
D02*
G37*
G36*
X309961Y234736D02*
X310308Y234592D01*
X310620Y234384D01*
X310753Y234251D01*
X311040Y233964D01*
X311493Y233287D01*
X311804Y232535D01*
X311963Y231737D01*
Y231331D01*
Y200845D01*
X308533D01*
Y217403D01*
X308463Y218837D01*
X307904Y221649D01*
X306806Y224299D01*
X305213Y226683D01*
X304249Y227747D01*
X304249Y234251D01*
X304249D01*
X304381Y234384D01*
X304693Y234592D01*
X305040Y234736D01*
X305408Y234809D01*
X309593D01*
X309961Y234736D01*
D02*
G37*
G36*
X512708Y72569D02*
X502292D01*
Y75000D01*
X512708D01*
Y72569D01*
D02*
G37*
G36*
X516805Y68125D02*
X498195D01*
Y70556D01*
X516805D01*
Y68125D01*
D02*
G37*
G36*
X520000Y63820D02*
X508715D01*
Y49410D01*
X506285D01*
Y63820D01*
X495000D01*
Y66250D01*
X520000D01*
Y63820D01*
D02*
G37*
D48*
X161574Y17500D02*
D03*
X193426D02*
D03*
Y67500D02*
D03*
X161574D02*
D03*
Y42500D02*
D03*
X193426D02*
D03*
Y92500D02*
D03*
X161574D02*
D03*
D49*
X361502Y207302D02*
D03*
X355000D02*
D03*
X348523Y207302D02*
D03*
X342021Y207302D02*
D03*
X335518D02*
D03*
X329016Y207302D02*
D03*
X322513Y207302D02*
D03*
X316011D02*
D03*
X309509Y207302D02*
D03*
X303006Y207302D02*
D03*
X296504D02*
D03*
X290001Y207302D02*
D03*
X283499Y207302D02*
D03*
X277022D02*
D03*
X361502Y150000D02*
D03*
X355000D02*
D03*
X348523Y150000D02*
D03*
X342021Y150000D02*
D03*
X335518D02*
D03*
X329016Y150000D02*
D03*
X322513Y150000D02*
D03*
X316011D02*
D03*
X309509Y150000D02*
D03*
X303006Y150000D02*
D03*
X296504D02*
D03*
X290001Y150000D02*
D03*
X283499Y150000D02*
D03*
X277022D02*
D03*
X47760Y151349D02*
D03*
X54237D02*
D03*
X60739Y151349D02*
D03*
X67242Y151349D02*
D03*
X73744D02*
D03*
X80246Y151349D02*
D03*
X86749Y151349D02*
D03*
X93251D02*
D03*
X99754Y151349D02*
D03*
X106256Y151349D02*
D03*
X112758D02*
D03*
X119261Y151349D02*
D03*
X125738Y151349D02*
D03*
X132240D02*
D03*
X47760Y208651D02*
D03*
X54237D02*
D03*
X60739Y208651D02*
D03*
X67242Y208651D02*
D03*
X73744D02*
D03*
X80246Y208651D02*
D03*
X86749Y208651D02*
D03*
X93251D02*
D03*
X99754Y208651D02*
D03*
X106256Y208651D02*
D03*
X112758D02*
D03*
X119261Y208651D02*
D03*
X125738Y208651D02*
D03*
X132240D02*
D03*
D50*
X319262Y178651D02*
D03*
X90000Y180000D02*
D03*
D51*
X427420Y292500D02*
D03*
X437580D02*
D03*
X238830Y52378D02*
D03*
X228670D02*
D03*
X258830D02*
D03*
X248670D02*
D03*
X462580Y125000D02*
D03*
X452420D02*
D03*
X437580Y245000D02*
D03*
X427420D02*
D03*
X465080Y17500D02*
D03*
X454920D02*
D03*
X434920D02*
D03*
X445080D02*
D03*
X467580Y305000D02*
D03*
X457420D02*
D03*
X464920Y315000D02*
D03*
X475080D02*
D03*
X460080Y245000D02*
D03*
X457580Y355000D02*
D03*
X457420Y285000D02*
D03*
X457580Y345000D02*
D03*
X457420Y325000D02*
D03*
X434920Y145000D02*
D03*
X467580Y325000D02*
D03*
X475080Y335000D02*
D03*
X464920D02*
D03*
X467580Y285000D02*
D03*
X445080Y145000D02*
D03*
X475080Y295000D02*
D03*
X464920D02*
D03*
X485080Y145000D02*
D03*
X474920D02*
D03*
X447420Y345000D02*
D03*
Y355000D02*
D03*
X454920Y145000D02*
D03*
X465080D02*
D03*
X449920Y245000D02*
D03*
D52*
X407500Y277580D02*
D03*
Y267420D02*
D03*
X417500Y277580D02*
D03*
Y267420D02*
D03*
X230000Y352580D02*
D03*
Y342420D02*
D03*
X240000Y352580D02*
D03*
Y342420D02*
D03*
X492500Y130080D02*
D03*
Y119920D02*
D03*
X502500D02*
D03*
Y130080D02*
D03*
X417638Y19583D02*
D03*
Y9423D02*
D03*
X406899Y19618D02*
D03*
Y9458D02*
D03*
X216250Y72298D02*
D03*
Y82458D02*
D03*
X271250Y79798D02*
D03*
Y89958D02*
D03*
X282500Y79960D02*
D03*
Y90120D02*
D03*
Y59960D02*
D03*
Y70120D02*
D03*
X271250Y59798D02*
D03*
Y69957D02*
D03*
X477500Y110080D02*
D03*
Y99920D02*
D03*
X32500Y242580D02*
D03*
X147500D02*
D03*
X267500D02*
D03*
X377500D02*
D03*
X220000Y342420D02*
D03*
X210000Y342420D02*
D03*
X32500Y167420D02*
D03*
Y177580D02*
D03*
Y197580D02*
D03*
Y187420D02*
D03*
X262500Y167420D02*
D03*
Y177580D02*
D03*
Y197580D02*
D03*
Y187420D02*
D03*
Y157580D02*
D03*
Y147420D02*
D03*
X267500Y232420D02*
D03*
X32500Y157580D02*
D03*
Y147420D02*
D03*
X147500Y179920D02*
D03*
Y190080D02*
D03*
X377500Y179920D02*
D03*
Y190080D02*
D03*
X147500Y210080D02*
D03*
Y199920D02*
D03*
X32500Y232420D02*
D03*
X147500D02*
D03*
X402500Y82580D02*
D03*
Y72420D02*
D03*
X220000Y352580D02*
D03*
X402500Y105080D02*
D03*
Y94920D02*
D03*
X377500Y232420D02*
D03*
Y210080D02*
D03*
Y199920D02*
D03*
X210000Y352580D02*
D03*
D53*
X463241Y72500D02*
D03*
Y77500D02*
D03*
X463241Y82500D02*
D03*
Y87500D02*
D03*
Y92500D02*
D03*
X463241Y97500D02*
D03*
Y102500D02*
D03*
X416759Y102500D02*
D03*
Y97500D02*
D03*
X416759Y92500D02*
D03*
Y87500D02*
D03*
Y82500D02*
D03*
X416759Y77500D02*
D03*
Y72500D02*
D03*
D54*
X455000Y110741D02*
D03*
X450000D02*
D03*
X445000D02*
D03*
X440000D02*
D03*
X435000D02*
D03*
X430000D02*
D03*
X425000D02*
D03*
Y64259D02*
D03*
X430000D02*
D03*
X435000D02*
D03*
X440000D02*
D03*
X445000D02*
D03*
X450000D02*
D03*
X455000D02*
D03*
D55*
X440000Y87500D02*
D03*
D56*
X363400Y231000D02*
D03*
Y237500D02*
D03*
X346600Y244000D02*
D03*
Y237500D02*
D03*
Y231000D02*
D03*
X363400Y244000D02*
D03*
X133400Y244000D02*
D03*
X116600Y231000D02*
D03*
Y237500D02*
D03*
Y244000D02*
D03*
X133400Y237500D02*
D03*
Y231000D02*
D03*
D57*
X382207Y62976D02*
D03*
X374511Y62976D02*
D03*
X325489D02*
D03*
X317742D02*
D03*
D58*
X367501Y62976D02*
D03*
X362497D02*
D03*
X357493D02*
D03*
X352489D02*
D03*
X347511D02*
D03*
X342507D02*
D03*
X337503D02*
D03*
X332499D02*
D03*
D59*
X442500Y304249D02*
D03*
X397500D02*
D03*
X442500Y325751D02*
D03*
X397500D02*
D03*
D60*
X216749Y1500D02*
D03*
X293251D02*
D03*
X396749Y403499D02*
D03*
X473251D02*
D03*
X166749D02*
D03*
X243251D02*
D03*
D61*
X273744Y33500D02*
D03*
X261247D02*
D03*
X248750D02*
D03*
X236254D02*
D03*
X198753Y371501D02*
D03*
X428753D02*
D03*
X453746D02*
D03*
X441250D02*
D03*
X416256D02*
D03*
X223746D02*
D03*
X211250D02*
D03*
X186256D02*
D03*
D62*
X183000Y112500D02*
D03*
X202000D02*
D03*
X192500Y132500D02*
D03*
D63*
X167501Y123999D02*
D03*
Y110999D02*
D03*
X155501Y123999D02*
D03*
X155501Y110999D02*
D03*
X89999Y231001D02*
D03*
Y244001D02*
D03*
X319999Y231001D02*
D03*
Y244001D02*
D03*
X77499D02*
D03*
X77499Y231001D02*
D03*
X332499Y244001D02*
D03*
Y231001D02*
D03*
X102499Y244001D02*
D03*
Y231001D02*
D03*
X307499Y244001D02*
D03*
Y231001D02*
D03*
D64*
X229250Y69219D02*
D03*
Y74220D02*
D03*
Y79217D02*
D03*
Y84218D02*
D03*
X258250D02*
D03*
Y79217D02*
D03*
Y74215D02*
D03*
Y69217D02*
D03*
D65*
X238749Y85041D02*
D03*
X248749D02*
D03*
D66*
X243750Y83041D02*
D03*
D67*
X251251Y64714D02*
D03*
X246249D02*
D03*
X241248Y64714D02*
D03*
X236249Y64714D02*
D03*
D68*
X259750Y114878D02*
D03*
X227751D02*
D03*
D69*
X445255Y38500D02*
D03*
X467715Y29000D02*
D03*
X467715Y48000D02*
D03*
X435215Y48000D02*
D03*
X435215Y29000D02*
D03*
X412755Y38500D02*
D03*
D70*
X472500Y161375D02*
D03*
X477500Y228625D02*
D03*
X472500D02*
D03*
X467500D02*
D03*
X462500D02*
D03*
X457500D02*
D03*
X452500Y228625D02*
D03*
X447500D02*
D03*
X442500Y228625D02*
D03*
X437500D02*
D03*
X432500D02*
D03*
X427500D02*
D03*
X422500D02*
D03*
Y161375D02*
D03*
X427500D02*
D03*
X432500D02*
D03*
X437500D02*
D03*
X442500D02*
D03*
X447500Y161375D02*
D03*
X452500D02*
D03*
X457500Y161375D02*
D03*
X462500D02*
D03*
X467500D02*
D03*
X477500D02*
D03*
D71*
X61500Y229100D02*
D03*
X293100D02*
D03*
X48500Y245900D02*
D03*
X55000Y245900D02*
D03*
X61500Y245900D02*
D03*
X55000Y229100D02*
D03*
X48500D02*
D03*
X280100Y245900D02*
D03*
X286600D02*
D03*
X293100D02*
D03*
X286600Y229100D02*
D03*
X280100D02*
D03*
D72*
X520000Y270000D02*
D03*
Y320000D02*
D03*
D73*
X285000Y285000D02*
D03*
X355000D02*
D03*
X319999D02*
D03*
X55000D02*
D03*
X125000D02*
D03*
X89999D02*
D03*
D74*
X450000Y195000D02*
D03*
D75*
X416375Y222500D02*
D03*
Y217500D02*
D03*
Y212500D02*
D03*
Y207500D02*
D03*
Y202500D02*
D03*
X416375Y197500D02*
D03*
Y192500D02*
D03*
X416375Y187500D02*
D03*
Y182500D02*
D03*
Y177500D02*
D03*
Y172500D02*
D03*
Y167500D02*
D03*
X483625D02*
D03*
Y172500D02*
D03*
Y177500D02*
D03*
Y182500D02*
D03*
Y187500D02*
D03*
X483625Y192500D02*
D03*
Y197500D02*
D03*
X483625Y202500D02*
D03*
Y207500D02*
D03*
Y212500D02*
D03*
Y217500D02*
D03*
Y222500D02*
D03*
D76*
X205000Y295000D02*
D03*
X507500Y27500D02*
D03*
Y382500D02*
D03*
D77*
X320210Y48520D02*
D03*
X379790D02*
D03*
D78*
X393205Y12024D02*
D03*
X306795D02*
D03*
D79*
X393205Y53832D02*
D03*
X306795D02*
D03*
D80*
X22499Y17500D02*
D03*
X132499Y17500D02*
D03*
D81*
X102499Y117500D02*
D03*
X52499D02*
D03*
D82*
X334248Y183655D02*
D03*
Y173647D02*
D03*
X324266Y183655D02*
D03*
Y173647D02*
D03*
X314258Y183655D02*
D03*
Y173647D02*
D03*
X304251Y183655D02*
D03*
Y173647D02*
D03*
X74989Y174996D02*
D03*
Y185004D02*
D03*
X84996Y174996D02*
D03*
Y185004D02*
D03*
X95004Y174996D02*
D03*
Y185004D02*
D03*
X104986Y174996D02*
D03*
Y185004D02*
D03*
M02*
