G04*
G04 #@! TF.GenerationSoftware,Altium Limited,Altium Designer,22.7.1 (60)*
G04*
G04 Layer_Color=16711935*
%FSLAX44Y44*%
%MOMM*%
G71*
G04*
G04 #@! TF.SameCoordinates,DE4C8CE6-A766-4DDB-9AE5-6163675FD0FB*
G04*
G04*
G04 #@! TF.FilePolarity,Positive*
G04*
G01*
G75*
%ADD100C,0.0508*%
D100*
X437500Y290000D02*
Y295000D01*
X427500Y290000D02*
Y295000D01*
X405000Y267500D02*
X410000D01*
X405000Y277500D02*
X410000D01*
X415000Y267500D02*
X420000D01*
X415000Y277500D02*
X420000D01*
X227500Y342500D02*
X232500D01*
X227500Y352500D02*
X232500D01*
X237500Y342500D02*
X242500D01*
X237500Y352500D02*
X242500Y352500D01*
X490000Y120000D02*
X495000D01*
X490000Y130000D02*
X495000D01*
X500000Y130000D02*
X505000D01*
X500000Y120000D02*
X505000D01*
X415138Y9503D02*
X420138D01*
X415138Y19503D02*
X420138D01*
X404399Y9538D02*
X409399D01*
X404399Y19538D02*
X409399D01*
X213750Y82378D02*
X218750D01*
X213750Y72378D02*
X218750D01*
X268750Y89878D02*
X273750D01*
X268750Y79878D02*
X273750D01*
X228750Y49877D02*
Y54878D01*
X238750Y49878D02*
Y54878D01*
X248750Y49877D02*
Y54878D01*
X258750Y49878D02*
Y54878D01*
X280000Y90040D02*
X285000D01*
X280000Y80040D02*
X285000D01*
X280000Y60040D02*
X285000D01*
X280000Y70040D02*
X285000D01*
X280000Y60040D02*
Y70040D01*
X285000D02*
X285000Y60040D01*
X280976Y65040D02*
X284024D01*
X282499Y63517D02*
X282499Y66565D01*
X268750Y69878D02*
X273750D01*
X268750Y59878D02*
X273750Y59878D01*
X452500Y122500D02*
Y127500D01*
X462500Y122500D02*
Y127500D01*
X475000Y100000D02*
X480000D01*
X475000Y110000D02*
X480000Y110000D01*
X427500Y242500D02*
Y247500D01*
X437500Y242500D02*
Y247500D01*
X455000Y15000D02*
Y20000D01*
X465000Y15000D02*
Y20000D01*
X445000Y15000D02*
Y20000D01*
X435000Y15000D02*
Y20000D01*
X457500Y302500D02*
Y307500D01*
X467500Y302500D02*
Y307500D01*
X465000Y312500D02*
Y317500D01*
X475000Y312500D02*
Y317500D01*
X465000Y317500D02*
X475000D01*
X465000Y312500D02*
X475000D01*
X470000Y313476D02*
Y316524D01*
X468477Y315001D02*
X471525Y315001D01*
X467500Y322500D02*
Y327500D01*
X457500Y322500D02*
Y327500D01*
X468477Y335001D02*
X471525D01*
X470000Y333476D02*
Y336524D01*
X465000Y332500D02*
X475000D01*
X465000Y337500D02*
X475000D01*
Y332500D02*
Y337500D01*
X465000Y332500D02*
Y337500D01*
X467500Y282500D02*
Y287500D01*
X457500Y282500D02*
Y287500D01*
X435000Y142500D02*
Y147500D01*
X445000Y142500D02*
Y147500D01*
X468477Y295001D02*
X471525D01*
X470000Y293476D02*
Y296524D01*
X465000Y292500D02*
X475000D01*
X465000Y297500D02*
X475000D01*
Y292500D02*
Y297500D01*
X465000Y292500D02*
Y297500D01*
X30000Y177500D02*
X35000D01*
X30000Y167500D02*
X35000D01*
X32499Y194025D02*
X32499Y190977D01*
X30976Y192500D02*
X34024D01*
X35000Y187500D02*
Y197500D01*
X30000Y187500D02*
Y197500D01*
X30000Y197500D02*
X35000D01*
X30000Y187500D02*
X35000D01*
X260000Y177500D02*
X265000D01*
X260000Y167500D02*
X265000D01*
X262499Y194025D02*
X262499Y190977D01*
X260976Y192500D02*
X264024D01*
X265000Y187500D02*
Y197500D01*
X260000Y187500D02*
Y197500D01*
X260000Y197500D02*
X265000D01*
X260000Y187500D02*
X265000D01*
X260000Y147500D02*
X265000D01*
X260000Y157500D02*
X265000D01*
X265000Y232500D02*
X270000Y232500D01*
X265000Y242500D02*
X270000D01*
X30000Y147500D02*
X35000D01*
X30000Y157500D02*
X35000D01*
X145000Y190000D02*
X150000D01*
X145000Y180000D02*
X150000D01*
X475000Y142500D02*
Y147500D01*
X485000Y142500D02*
Y147500D01*
X375000Y190000D02*
X380000D01*
X375000Y180000D02*
X380000D01*
X145000Y200000D02*
X150000D01*
X145000Y210000D02*
X150000D01*
X30000Y232500D02*
X35000D01*
X30000Y242500D02*
X35000D01*
X145000Y232500D02*
X150000D01*
X145000Y242500D02*
X150000D01*
X400000Y72500D02*
X405000D01*
X400000Y82500D02*
X405000D01*
X457500Y342500D02*
Y347500D01*
X447500Y342500D02*
Y347500D01*
X457500Y352500D02*
Y357500D01*
X447500Y352500D02*
Y357500D01*
X217500Y342500D02*
X222500D01*
X217500Y352500D02*
X222500D01*
X400000Y95000D02*
X405000D01*
X400000Y105000D02*
X405000D01*
X465000Y142500D02*
Y147500D01*
X455000Y142500D02*
Y147500D01*
X375000Y232500D02*
X380000D01*
X375000Y242500D02*
X380000D01*
X375000Y200000D02*
X380000D01*
X375000Y210000D02*
X380000D01*
X207500Y342500D02*
X212500Y342500D01*
X207500Y352500D02*
X212500D01*
X450000Y242500D02*
Y247500D01*
X460000Y242500D02*
Y247500D01*
M02*
