G04*
G04 #@! TF.GenerationSoftware,Altium Limited,Altium Designer,22.7.1 (60)*
G04*
G04 Layer_Physical_Order=2*
G04 Layer_Color=16711680*
%FSLAX44Y44*%
%MOMM*%
G71*
G04*
G04 #@! TF.SameCoordinates,DE4C8CE6-A766-4DDB-9AE5-6163675FD0FB*
G04*
G04*
G04 #@! TF.FilePolarity,Positive*
G04*
G01*
G75*
%ADD10C,0.1778*%
%ADD13C,0.2000*%
%ADD16C,0.3000*%
%ADD17C,0.1524*%
%ADD77C,0.8000*%
%ADD85C,1.5000*%
%ADD86C,4.5000*%
%ADD87O,1.0008X1.6002*%
%ADD88O,1.0008X2.1006*%
%ADD89C,1.8000*%
%ADD90C,2.5000*%
%ADD91C,0.5050*%
%ADD92C,0.6000*%
%ADD93C,1.1000*%
G04:AMPARAMS|DCode=94|XSize=3.03mm|YSize=3.82mm|CornerRadius=0.7575mm|HoleSize=0mm|Usage=FLASHONLY|Rotation=180.000|XOffset=0mm|YOffset=0mm|HoleType=Round|Shape=RoundedRectangle|*
%AMROUNDEDRECTD94*
21,1,3.0300,2.3050,0,0,180.0*
21,1,1.5150,3.8200,0,0,180.0*
1,1,1.5150,-0.7575,1.1525*
1,1,1.5150,0.7575,1.1525*
1,1,1.5150,0.7575,-1.1525*
1,1,1.5150,-0.7575,-1.1525*
%
%ADD94ROUNDEDRECTD94*%
G36*
X514431Y407276D02*
X518692Y405984D01*
X522618Y403885D01*
X526060Y401060D01*
X528885Y397618D01*
X530984Y393692D01*
X532276Y389431D01*
X532704Y385090D01*
X532686Y385000D01*
Y352314D01*
X505000D01*
Y352333D01*
X503102Y352083D01*
X501334Y351350D01*
X499815Y350185D01*
X498650Y348666D01*
X497917Y346898D01*
X497667Y345000D01*
X497917Y343102D01*
X498650Y341334D01*
X499815Y339815D01*
X501334Y338650D01*
X503102Y337917D01*
X505000Y337667D01*
Y252333D01*
X503102Y252083D01*
X501334Y251350D01*
X499815Y250185D01*
X498650Y248666D01*
X497917Y246898D01*
X497667Y245000D01*
X497917Y243102D01*
X498650Y241334D01*
X499815Y239815D01*
X501334Y238650D01*
X503102Y237917D01*
X505000Y237667D01*
Y237686D01*
X532686D01*
Y25000D01*
X532704Y24910D01*
X532276Y20569D01*
X530984Y16308D01*
X528885Y12382D01*
X526060Y8940D01*
X522618Y6115D01*
X518692Y4017D01*
X514431Y2724D01*
X510090Y2297D01*
X510000Y2315D01*
X396739D01*
X396353Y3584D01*
X397729Y4503D01*
X399115Y6579D01*
X399602Y9027D01*
Y10754D01*
X386809D01*
Y9027D01*
X387296Y6579D01*
X388682Y4503D01*
X390058Y3584D01*
X389672Y2315D01*
X310328D01*
X309942Y3584D01*
X311318Y4503D01*
X312704Y6579D01*
X313191Y9027D01*
Y10754D01*
X300398D01*
Y9027D01*
X300885Y6579D01*
X302271Y4503D01*
X303647Y3584D01*
X303262Y2315D01*
X25000D01*
X24910Y2297D01*
X20569Y2724D01*
X16308Y4017D01*
X12382Y6115D01*
X8940Y8940D01*
X6115Y12382D01*
X4017Y16308D01*
X2724Y20569D01*
X2410Y23759D01*
X2315Y25000D01*
X2315Y25000D01*
X2314Y26249D01*
X2315Y385000D01*
X2297Y385090D01*
X2724Y389431D01*
X4017Y393692D01*
X6115Y397618D01*
X8940Y401060D01*
X12382Y403885D01*
X16308Y405984D01*
X20569Y407276D01*
X21744Y407392D01*
X22685Y406539D01*
Y307500D01*
X22862Y306614D01*
X23363Y305863D01*
X24114Y305362D01*
X25000Y305186D01*
X155000D01*
X155886Y305362D01*
X156637Y305863D01*
X157138Y306614D01*
X157315Y307500D01*
Y407686D01*
X252686D01*
Y307500D01*
X252862Y306614D01*
X253363Y305863D01*
X254114Y305362D01*
X255000Y305186D01*
X385000D01*
X385886Y305362D01*
X386637Y305863D01*
X387138Y306614D01*
X387314Y307500D01*
Y407686D01*
X510000D01*
X510090Y407704D01*
X514431Y407276D01*
D02*
G37*
%LPC*%
G36*
X509841Y406270D02*
X508770D01*
Y383770D01*
X531270D01*
Y384841D01*
X530356Y389433D01*
X528565Y393759D01*
X525963Y397653D01*
X522653Y400963D01*
X518759Y403565D01*
X514434Y405356D01*
X509841Y406270D01*
D02*
G37*
G36*
X506230D02*
X505159D01*
X500566Y405356D01*
X496241Y403565D01*
X492347Y400963D01*
X489037Y397653D01*
X486435Y393759D01*
X484644Y389433D01*
X483730Y384841D01*
Y383770D01*
X506230D01*
Y406270D01*
D02*
G37*
G36*
X531270Y381230D02*
X508770D01*
Y358730D01*
X509841D01*
X514434Y359643D01*
X518759Y361435D01*
X522653Y364037D01*
X525963Y367347D01*
X528565Y371241D01*
X530356Y375566D01*
X531270Y380159D01*
Y381230D01*
D02*
G37*
G36*
X506230D02*
X483730D01*
Y380159D01*
X484644Y375566D01*
X486435Y371241D01*
X489037Y367347D01*
X492347Y364037D01*
X496241Y361435D01*
X500566Y359643D01*
X505159Y358730D01*
X506230D01*
Y381230D01*
D02*
G37*
G36*
X480755Y333875D02*
X479245D01*
X477850Y333297D01*
X476783Y332230D01*
X476205Y330835D01*
Y329325D01*
X476783Y327930D01*
X477850Y326863D01*
X479245Y326285D01*
X479760D01*
X479999Y326181D01*
X480231Y326176D01*
X480405Y326162D01*
X480560Y326138D01*
X480698Y326107D01*
X480819Y326070D01*
X480926Y326026D01*
X481021Y325978D01*
X481107Y325924D01*
X481186Y325864D01*
X481307Y325753D01*
X481448Y325702D01*
X486016Y321134D01*
Y309572D01*
X484746Y308664D01*
X484327Y308773D01*
X484216Y308894D01*
X484156Y308973D01*
X484102Y309059D01*
X484054Y309154D01*
X484010Y309261D01*
X483973Y309382D01*
X483941Y309520D01*
X483918Y309675D01*
X483904Y309849D01*
X483899Y310081D01*
X483795Y310320D01*
Y310835D01*
X483217Y312230D01*
X482150Y313297D01*
X480755Y313875D01*
X479245D01*
X477850Y313297D01*
X476783Y312230D01*
X476205Y310835D01*
Y309325D01*
X476783Y307930D01*
X477850Y306863D01*
X479245Y306285D01*
X479760D01*
X479999Y306181D01*
X480231Y306176D01*
X480405Y306162D01*
X480560Y306138D01*
X480698Y306107D01*
X480819Y306070D01*
X480926Y306026D01*
X481021Y305978D01*
X481107Y305924D01*
X481186Y305864D01*
X481307Y305753D01*
X481448Y305702D01*
X483222Y303928D01*
Y293941D01*
X482729Y293608D01*
X481952Y293299D01*
X480755Y293795D01*
X479245D01*
X477850Y293217D01*
X476783Y292150D01*
X476205Y290755D01*
Y289245D01*
X476783Y287850D01*
X477850Y286783D01*
X479245Y286205D01*
X480314D01*
X480428Y286152D01*
Y206261D01*
X463179Y189012D01*
X462730Y188340D01*
X462572Y187547D01*
X462572Y187547D01*
Y158002D01*
X461448Y156878D01*
X461307Y156827D01*
X461186Y156716D01*
X461107Y156656D01*
X461021Y156602D01*
X460926Y156554D01*
X460819Y156510D01*
X460698Y156473D01*
X460560Y156441D01*
X460405Y156418D01*
X460231Y156404D01*
X459999Y156399D01*
X459760Y156295D01*
X459245D01*
X457850Y155717D01*
X456783Y154650D01*
X456205Y153255D01*
Y151745D01*
X456783Y150350D01*
X457850Y149283D01*
X459245Y148705D01*
X460755D01*
X462150Y149283D01*
X462999Y150132D01*
X463750Y150260D01*
X464501Y150132D01*
X465350Y149283D01*
X466745Y148705D01*
X468255D01*
X469650Y149283D01*
X470499Y150132D01*
X471250Y150260D01*
X472001Y150132D01*
X472850Y149283D01*
X474245Y148705D01*
X475755D01*
X477150Y149283D01*
X478217Y150350D01*
X478795Y151745D01*
Y153255D01*
X478217Y154650D01*
X477150Y155717D01*
X475755Y156295D01*
X475240D01*
X475001Y156399D01*
X474769Y156404D01*
X474595Y156418D01*
X474440Y156441D01*
X474302Y156473D01*
X474181Y156510D01*
X474074Y156554D01*
X473979Y156602D01*
X473893Y156656D01*
X473814Y156716D01*
X473693Y156827D01*
X473552Y156878D01*
X472429Y158001D01*
Y184499D01*
X489553Y201623D01*
X489553Y201623D01*
X490002Y202295D01*
X490160Y203088D01*
Y321992D01*
X490160Y321992D01*
X490002Y322785D01*
X489553Y323457D01*
X489553Y323457D01*
X484378Y328632D01*
X484327Y328773D01*
X484216Y328894D01*
X484156Y328973D01*
X484102Y329059D01*
X484054Y329154D01*
X484010Y329261D01*
X483973Y329382D01*
X483941Y329520D01*
X483918Y329675D01*
X483904Y329849D01*
X483899Y330081D01*
X483795Y330320D01*
Y330835D01*
X483217Y332230D01*
X482150Y333297D01*
X480755Y333875D01*
D02*
G37*
G36*
X203730Y318770D02*
X202659D01*
X198067Y317857D01*
X193741Y316065D01*
X189848Y313463D01*
X186537Y310152D01*
X183935Y306259D01*
X182143Y301933D01*
X181230Y297341D01*
Y296270D01*
X203730D01*
Y318770D01*
D02*
G37*
G36*
Y293730D02*
X181230D01*
Y292659D01*
X182143Y288067D01*
X183935Y283741D01*
X186537Y279848D01*
X189848Y276537D01*
X193741Y273935D01*
X198067Y272143D01*
X202659Y271230D01*
X203730D01*
Y293730D01*
D02*
G37*
G36*
X240755Y338795D02*
X239245D01*
X237850Y338217D01*
X236783Y337150D01*
X236205Y335755D01*
Y334245D01*
X236783Y332850D01*
X237141Y332492D01*
X237229Y332257D01*
X237334Y332145D01*
X237390Y332074D01*
X237439Y331998D01*
X237483Y331917D01*
X237521Y331826D01*
X237555Y331724D01*
X237584Y331608D01*
X237605Y331477D01*
X237620Y331330D01*
X237626Y331124D01*
X237686Y330992D01*
Y295000D01*
X237862Y294114D01*
X238363Y293363D01*
X253363Y278363D01*
X254114Y277862D01*
X255000Y277686D01*
X381541D01*
X390186Y269041D01*
Y241580D01*
X390003Y241418D01*
X389341Y241160D01*
X388676Y241420D01*
X388494Y241581D01*
Y261320D01*
X388318Y262206D01*
X387817Y262957D01*
X379137Y271637D01*
X378386Y272138D01*
X377500Y272314D01*
X250959D01*
X232314Y290959D01*
Y330992D01*
X232374Y331124D01*
X232380Y331330D01*
X232394Y331477D01*
X232416Y331608D01*
X232445Y331724D01*
X232479Y331826D01*
X232517Y331917D01*
X232561Y331998D01*
X232610Y332074D01*
X232666Y332145D01*
X232771Y332257D01*
X232859Y332492D01*
X233217Y332850D01*
X233795Y334245D01*
Y335755D01*
X233217Y337150D01*
X232150Y338217D01*
X230755Y338795D01*
X229245D01*
X227850Y338217D01*
X226783Y337150D01*
X226205Y335755D01*
Y334245D01*
X226783Y332850D01*
X227141Y332492D01*
X227229Y332257D01*
X227334Y332145D01*
X227390Y332074D01*
X227439Y331998D01*
X227483Y331917D01*
X227521Y331826D01*
X227555Y331724D01*
X227584Y331608D01*
X227605Y331477D01*
X227620Y331330D01*
X227626Y331124D01*
X227686Y330992D01*
Y305601D01*
X226440Y305353D01*
X226065Y306259D01*
X223463Y310152D01*
X220152Y313463D01*
X216259Y316065D01*
X211933Y317857D01*
X207341Y318770D01*
X206270D01*
Y295000D01*
Y271230D01*
X207341D01*
X211933Y272143D01*
X216259Y273935D01*
X220152Y276537D01*
X223463Y279848D01*
X226065Y283741D01*
X227566Y287365D01*
X229030Y287697D01*
X248363Y268363D01*
X249114Y267862D01*
X250000Y267686D01*
X376541D01*
X383866Y260361D01*
Y241508D01*
X383806Y241376D01*
X383800Y241170D01*
X383786Y241023D01*
X383764Y240892D01*
X383735Y240776D01*
X383701Y240674D01*
X383663Y240583D01*
X383619Y240502D01*
X383570Y240426D01*
X383514Y240355D01*
X383409Y240243D01*
X383321Y240007D01*
X382963Y239650D01*
X382385Y238255D01*
Y236745D01*
X382963Y235350D01*
X383728Y234585D01*
X383302Y233315D01*
X359008D01*
X358876Y233374D01*
X358670Y233380D01*
X358523Y233395D01*
X358392Y233417D01*
X358276Y233445D01*
X358174Y233479D01*
X358083Y233517D01*
X358002Y233561D01*
X357926Y233610D01*
X357855Y233666D01*
X357743Y233771D01*
X357508Y233860D01*
X357150Y234217D01*
X355755Y234795D01*
X354245D01*
X352850Y234217D01*
X351783Y233150D01*
X351205Y231755D01*
Y230245D01*
X351451Y229652D01*
X350602Y228382D01*
X295791D01*
X279471Y244702D01*
X279419Y244838D01*
X279278Y244988D01*
X279184Y245102D01*
X279107Y245210D01*
X279045Y245312D01*
X278997Y245408D01*
X278960Y245499D01*
X278933Y245588D01*
X278915Y245676D01*
X278904Y245766D01*
X278899Y245919D01*
X278795Y246149D01*
Y246655D01*
X278217Y248049D01*
X277150Y249117D01*
X275755Y249695D01*
X274245D01*
X272850Y249117D01*
X271783Y248049D01*
X271205Y246655D01*
Y245145D01*
X271783Y243750D01*
X272850Y242682D01*
X274245Y242105D01*
X274751D01*
X274980Y242001D01*
X275133Y241996D01*
X275224Y241985D01*
X275312Y241966D01*
X275400Y241940D01*
X275492Y241903D01*
X275588Y241854D01*
X275690Y241793D01*
X275798Y241716D01*
X275912Y241621D01*
X276062Y241481D01*
X276197Y241429D01*
X291341Y226285D01*
X290855Y225112D01*
X134161D01*
X129471Y229803D01*
X129419Y229938D01*
X129278Y230088D01*
X129184Y230202D01*
X129107Y230310D01*
X129045Y230412D01*
X128997Y230508D01*
X128960Y230600D01*
X128933Y230688D01*
X128915Y230776D01*
X128904Y230867D01*
X128899Y231020D01*
X128795Y231249D01*
Y231755D01*
X128217Y233150D01*
X127150Y234217D01*
X125755Y234795D01*
X124245D01*
X122850Y234217D01*
X121783Y233150D01*
X121205Y231755D01*
Y230245D01*
X121783Y228850D01*
X122850Y227783D01*
X124245Y227205D01*
X124751D01*
X124980Y227101D01*
X125133Y227096D01*
X125224Y227085D01*
X125312Y227067D01*
X125400Y227040D01*
X125492Y227003D01*
X125588Y226955D01*
X125690Y226893D01*
X125798Y226816D01*
X125912Y226722D01*
X126062Y226581D01*
X126197Y226530D01*
X129711Y223015D01*
X129225Y221842D01*
X69831D01*
X67638Y224035D01*
X68164Y225305D01*
X68255D01*
X69650Y225883D01*
X69901Y226134D01*
X69915Y226133D01*
X69969Y226152D01*
X69999Y226160D01*
X70043Y226168D01*
X70818Y226223D01*
X71059Y226226D01*
X71177Y226276D01*
X109100D01*
X109100Y226276D01*
X110181Y226491D01*
X111097Y227103D01*
X123670Y239676D01*
X151323D01*
X151441Y239625D01*
X151702Y239623D01*
X152129Y239604D01*
X152433Y239572D01*
X152501Y239559D01*
X152531Y239552D01*
X152585Y239533D01*
X152599Y239534D01*
X152850Y239283D01*
X154245Y238705D01*
X155755D01*
X157150Y239283D01*
X158217Y240350D01*
X158795Y241745D01*
Y243255D01*
X158217Y244650D01*
X157150Y245717D01*
X155755Y246295D01*
X154245D01*
X152850Y245717D01*
X152599Y245466D01*
X152585Y245467D01*
X152531Y245448D01*
X152500Y245441D01*
X152457Y245433D01*
X151682Y245377D01*
X151441Y245375D01*
X151323Y245324D01*
X122500D01*
X122500Y245324D01*
X121419Y245109D01*
X120503Y244497D01*
X120503Y244497D01*
X107930Y231924D01*
X71177D01*
X71059Y231975D01*
X70798Y231977D01*
X70371Y231996D01*
X70067Y232029D01*
X69999Y232041D01*
X69969Y232048D01*
X69915Y232067D01*
X69901Y232066D01*
X69650Y232317D01*
X68255Y232895D01*
X66745D01*
X65350Y232317D01*
X64283Y231250D01*
X63705Y229855D01*
Y229764D01*
X62435Y229238D01*
X46971Y244702D01*
X46919Y244838D01*
X46778Y244988D01*
X46684Y245102D01*
X46607Y245210D01*
X46545Y245312D01*
X46497Y245408D01*
X46460Y245500D01*
X46433Y245588D01*
X46415Y245676D01*
X46404Y245766D01*
X46399Y245919D01*
X46295Y246149D01*
Y246655D01*
X45717Y248050D01*
X44650Y249117D01*
X43255Y249695D01*
X41745D01*
X40350Y249117D01*
X39283Y248050D01*
X38705Y246655D01*
Y245145D01*
X39283Y243750D01*
X40350Y242682D01*
X41745Y242105D01*
X42251D01*
X42480Y242001D01*
X42634Y241996D01*
X42724Y241985D01*
X42812Y241966D01*
X42900Y241940D01*
X42992Y241903D01*
X43088Y241855D01*
X43190Y241793D01*
X43298Y241716D01*
X43412Y241621D01*
X43562Y241481D01*
X43697Y241429D01*
X67235Y217891D01*
X67374Y217798D01*
X66989Y216528D01*
X47200D01*
Y216574D01*
X42991Y216159D01*
X38944Y214932D01*
X35214Y212938D01*
X31945Y210255D01*
X29262Y206986D01*
X27268Y203256D01*
X26041Y199209D01*
X25626Y195000D01*
X25610D01*
X26090Y190123D01*
X27512Y185434D01*
X29822Y181112D01*
X32931Y177324D01*
X32975Y177368D01*
X84333Y126010D01*
X84374Y125904D01*
X85236Y124998D01*
X85979Y124126D01*
X86625Y123267D01*
X87177Y122422D01*
X87636Y121591D01*
X88004Y120775D01*
X88284Y119974D01*
X88479Y119186D01*
X88592Y118409D01*
X88627Y117581D01*
Y116269D01*
X88680Y116139D01*
X88653Y116001D01*
X89133Y113586D01*
X89212Y113469D01*
Y113328D01*
X89634Y112307D01*
X89667Y112185D01*
X89730Y112076D01*
X90154Y111053D01*
X90253Y110953D01*
X90281Y110815D01*
X91649Y108768D01*
X91766Y108690D01*
X91820Y108560D01*
X92666Y107713D01*
X93259Y107059D01*
X94257Y105566D01*
X94931Y103938D01*
X95282Y102176D01*
X95325Y101295D01*
Y75000D01*
X95353Y74932D01*
Y63475D01*
X95657Y61166D01*
X96549Y59014D01*
X97966Y57167D01*
X99814Y55749D01*
X101966Y54858D01*
X104275Y54554D01*
X119425D01*
X121734Y54858D01*
X123885Y55749D01*
X125733Y57167D01*
X127151Y59014D01*
X128042Y61166D01*
X128346Y63475D01*
Y74932D01*
X128374Y75000D01*
Y100158D01*
Y102660D01*
X128320Y102790D01*
X128348Y102928D01*
X127372Y107835D01*
X127294Y107952D01*
Y108093D01*
X125379Y112716D01*
X125279Y112815D01*
X125252Y112953D01*
X122472Y117114D01*
X122355Y117192D01*
X122301Y117322D01*
X120532Y119091D01*
X112312Y127311D01*
X112312Y127311D01*
X111441Y128181D01*
X111311Y128235D01*
X111233Y128352D01*
X109186Y129720D01*
X109048Y129748D01*
X108948Y129847D01*
X107901Y130281D01*
X107814Y130332D01*
X107716Y130358D01*
X106673Y130790D01*
X106533D01*
X106416Y130868D01*
X104001Y131348D01*
X103862Y131321D01*
X103732Y131375D01*
X102389D01*
X101591Y131408D01*
X100814Y131521D01*
X100026Y131716D01*
X99225Y131996D01*
X98409Y132364D01*
X97578Y132823D01*
X96732Y133375D01*
X95874Y134022D01*
X95002Y134764D01*
X94096Y135626D01*
X93990Y135666D01*
X42632Y187025D01*
X42546Y187091D01*
X40815Y189347D01*
X39685Y192074D01*
X39460Y193784D01*
X39330Y195000D01*
X39330Y195000D01*
X39330Y195000D01*
X39598Y197037D01*
X40384Y198935D01*
X41635Y200565D01*
X43265Y201816D01*
X45163Y202602D01*
X47200Y202870D01*
Y202872D01*
X157716D01*
X158242Y201602D01*
X103126Y146486D01*
X102759Y146241D01*
X100984Y144466D01*
X100846Y144414D01*
X100708Y144286D01*
X100607Y144205D01*
X100506Y144136D01*
X100403Y144077D01*
X100297Y144027D01*
X100187Y143986D01*
X100069Y143952D01*
X99944Y143926D01*
X99807Y143908D01*
X99613Y143897D01*
X99403Y143795D01*
X98999D01*
X97604Y143217D01*
X96536Y142150D01*
X95959Y140755D01*
Y139245D01*
X96536Y137850D01*
X97604Y136783D01*
X98999Y136205D01*
X100508D01*
X101903Y136783D01*
X102175Y137055D01*
X103005Y137819D01*
X103834Y137055D01*
X104106Y136783D01*
X105501Y136205D01*
X107011D01*
X108406Y136783D01*
X108678Y137055D01*
X109507Y137819D01*
X110337Y137055D01*
X110609Y136783D01*
X112003Y136205D01*
X113513D01*
X114908Y136783D01*
X115976Y137850D01*
X116553Y139245D01*
Y139756D01*
X116657Y139990D01*
X116662Y140181D01*
X116676Y140311D01*
X116697Y140431D01*
X116727Y140541D01*
X116764Y140646D01*
X116810Y140746D01*
X116864Y140844D01*
X116930Y140942D01*
X117009Y141041D01*
X117136Y141178D01*
X117188Y141316D01*
X168288Y192416D01*
X173382D01*
X173868Y191243D01*
X127054Y144430D01*
X126916Y144378D01*
X126779Y144251D01*
X126680Y144172D01*
X126582Y144106D01*
X126484Y144051D01*
X126383Y144005D01*
X126279Y143968D01*
X126168Y143939D01*
X126049Y143917D01*
X125919Y143904D01*
X125728Y143899D01*
X125494Y143795D01*
X124983D01*
X123588Y143217D01*
X122521Y142150D01*
X121943Y140755D01*
Y139245D01*
X122521Y137850D01*
X123588Y136783D01*
X124983Y136205D01*
X126493D01*
X127887Y136783D01*
X128955Y137850D01*
X129533Y139245D01*
Y139756D01*
X129637Y139990D01*
X129642Y140181D01*
X129655Y140311D01*
X129677Y140431D01*
X129706Y140541D01*
X129743Y140646D01*
X129789Y140746D01*
X129844Y140844D01*
X129910Y140942D01*
X129988Y141041D01*
X130116Y141178D01*
X130167Y141316D01*
X178219Y189368D01*
X405019D01*
X405571Y188816D01*
X405622Y188678D01*
X405749Y188541D01*
X405828Y188442D01*
X405894Y188344D01*
X405949Y188246D01*
X405995Y188146D01*
X406032Y188041D01*
X406061Y187931D01*
X406083Y187811D01*
X406096Y187681D01*
X406101Y187490D01*
X406205Y187256D01*
Y186745D01*
X406783Y185350D01*
X407850Y184283D01*
X409245Y183705D01*
X410755D01*
X412150Y184283D01*
X413217Y185350D01*
X413795Y186745D01*
Y188255D01*
X413217Y189650D01*
X412150Y190717D01*
X410755Y191295D01*
X410244D01*
X410010Y191399D01*
X409819Y191404D01*
X409689Y191417D01*
X409569Y191439D01*
X409459Y191468D01*
X409354Y191505D01*
X409254Y191551D01*
X409156Y191606D01*
X409058Y191672D01*
X408959Y191751D01*
X408828Y192353D01*
Y192622D01*
X408932Y193120D01*
X409058Y193328D01*
X409156Y193394D01*
X409254Y193449D01*
X409354Y193495D01*
X409459Y193532D01*
X409569Y193561D01*
X409689Y193583D01*
X409819Y193596D01*
X410010Y193601D01*
X410244Y193705D01*
X410755D01*
X412150Y194283D01*
X413217Y195350D01*
X413795Y196745D01*
Y198255D01*
X413217Y199650D01*
X412150Y200717D01*
X410755Y201295D01*
X409968D01*
X409728Y201387D01*
X409138Y202794D01*
X409434Y203500D01*
X409968Y203705D01*
X410755D01*
X412150Y204283D01*
X413217Y205350D01*
X413795Y206745D01*
Y208255D01*
X413217Y209650D01*
X412150Y210717D01*
X410755Y211295D01*
X409245D01*
X407850Y210717D01*
X407158Y210025D01*
X406931Y209905D01*
X406819Y209770D01*
X406746Y209696D01*
X406676Y209637D01*
X406606Y209589D01*
X406534Y209550D01*
X406457Y209517D01*
X406371Y209489D01*
X406272Y209468D01*
X406157Y209454D01*
X405972Y209447D01*
X405909Y209418D01*
X405842Y209435D01*
X405756Y209385D01*
X402184D01*
X401342Y209218D01*
X400627Y208741D01*
X394802Y202915D01*
X346865D01*
X346434Y204185D01*
X347328Y204872D01*
X348414Y206286D01*
X349096Y207933D01*
X349328Y209700D01*
X349096Y211467D01*
X348414Y213114D01*
X347328Y214528D01*
X345914Y215614D01*
X345118Y215943D01*
X345371Y217213D01*
X446413D01*
X447299Y217389D01*
X448049Y217891D01*
X459137Y228978D01*
X459638Y229729D01*
X459814Y230615D01*
Y230992D01*
X459874Y231124D01*
X459880Y231330D01*
X459894Y231477D01*
X459916Y231608D01*
X459945Y231724D01*
X459979Y231826D01*
X460017Y231917D01*
X460061Y231998D01*
X460110Y232074D01*
X460166Y232145D01*
X460271Y232257D01*
X460359Y232493D01*
X460717Y232850D01*
X461295Y234245D01*
Y235755D01*
X460717Y237150D01*
X459650Y238217D01*
X458255Y238795D01*
X456745D01*
X456131Y239915D01*
X455690Y240980D01*
X454622Y242047D01*
X453228Y242625D01*
X451718D01*
X450323Y242047D01*
X449256Y240980D01*
X448678Y239585D01*
X447864Y239004D01*
X446442Y239235D01*
X446072Y239879D01*
X445637Y240929D01*
X444570Y241996D01*
X443175Y242574D01*
X441665D01*
X440270Y241996D01*
X439203Y240929D01*
X438625Y239534D01*
Y239028D01*
X438521Y238799D01*
X438516Y238646D01*
X438505Y238556D01*
X438487Y238468D01*
X438460Y238379D01*
X438423Y238288D01*
X438375Y238192D01*
X438313Y238090D01*
X438236Y237982D01*
X438142Y237867D01*
X438001Y237717D01*
X437950Y237582D01*
X433682Y233315D01*
X395378D01*
X394952Y234585D01*
X395717Y235350D01*
X396295Y236745D01*
Y238255D01*
X395717Y239650D01*
X395359Y240007D01*
X395271Y240243D01*
X395166Y240355D01*
X395110Y240426D01*
X395061Y240502D01*
X395017Y240583D01*
X394979Y240674D01*
X394945Y240776D01*
X394916Y240892D01*
X394894Y241023D01*
X394880Y241170D01*
X394874Y241376D01*
X394814Y241508D01*
Y270000D01*
X394638Y270886D01*
X394137Y271637D01*
X384137Y281637D01*
X383386Y282138D01*
X382500Y282314D01*
X255959D01*
X242314Y295959D01*
Y330992D01*
X242374Y331124D01*
X242380Y331330D01*
X242394Y331477D01*
X242416Y331608D01*
X242445Y331724D01*
X242479Y331826D01*
X242517Y331917D01*
X242561Y331998D01*
X242610Y332074D01*
X242666Y332145D01*
X242771Y332257D01*
X242859Y332492D01*
X243217Y332850D01*
X243795Y334245D01*
Y335755D01*
X243217Y337150D01*
X242150Y338217D01*
X240755Y338795D01*
D02*
G37*
G36*
X285000Y257314D02*
X265000D01*
X264114Y257138D01*
X263363Y256637D01*
X258363Y251637D01*
X257862Y250886D01*
X257686Y250000D01*
Y246508D01*
X257626Y246376D01*
X257620Y246170D01*
X257606Y246023D01*
X257584Y245892D01*
X257555Y245776D01*
X257521Y245674D01*
X257483Y245583D01*
X257439Y245502D01*
X257390Y245426D01*
X257334Y245355D01*
X257229Y245243D01*
X257141Y245007D01*
X256783Y244650D01*
X256205Y243255D01*
Y241745D01*
X256783Y240350D01*
X257850Y239283D01*
X259245Y238705D01*
X260755D01*
X262150Y239283D01*
X263217Y240350D01*
X263795Y241745D01*
Y243255D01*
X263217Y244650D01*
X262859Y245007D01*
X262771Y245243D01*
X262666Y245355D01*
X262610Y245426D01*
X262561Y245502D01*
X262517Y245583D01*
X262479Y245674D01*
X262445Y245776D01*
X262416Y245892D01*
X262394Y246023D01*
X262380Y246170D01*
X262374Y246376D01*
X262314Y246508D01*
Y249041D01*
X265959Y252686D01*
X284041D01*
X294364Y242363D01*
X295114Y241861D01*
X296000Y241685D01*
X350992D01*
X351124Y241626D01*
X351330Y241619D01*
X351477Y241605D01*
X351608Y241583D01*
X351724Y241555D01*
X351826Y241521D01*
X351917Y241483D01*
X351998Y241439D01*
X352074Y241390D01*
X352145Y241334D01*
X352257Y241229D01*
X352492Y241140D01*
X352850Y240783D01*
X354245Y240205D01*
X355755D01*
X357150Y240783D01*
X358217Y241850D01*
X358795Y243245D01*
Y244755D01*
X358217Y246150D01*
X357150Y247217D01*
X355755Y247795D01*
X354245D01*
X352850Y247217D01*
X352492Y246859D01*
X352257Y246771D01*
X352145Y246666D01*
X352074Y246610D01*
X351998Y246561D01*
X351917Y246517D01*
X351826Y246479D01*
X351724Y246445D01*
X351608Y246416D01*
X351477Y246394D01*
X351330Y246380D01*
X351124Y246374D01*
X350992Y246314D01*
X296959D01*
X286637Y256637D01*
X285886Y257138D01*
X285000Y257314D01*
D02*
G37*
G36*
X463255Y283795D02*
X461745D01*
X460350Y283217D01*
X459283Y282150D01*
X458705Y280755D01*
Y279245D01*
X459283Y277850D01*
X460350Y276783D01*
X461745Y276205D01*
X462100D01*
X462110Y276194D01*
X462161Y276170D01*
X462188Y276154D01*
X462224Y276128D01*
X462812Y275620D01*
X462984Y275451D01*
X463103Y275403D01*
X472176Y266330D01*
Y208670D01*
X461330Y197824D01*
X440000D01*
X438919Y197609D01*
X438003Y196997D01*
X438003Y196997D01*
X433003Y191997D01*
X432391Y191081D01*
X432176Y190000D01*
X432176Y190000D01*
Y153677D01*
X432125Y153559D01*
X432123Y153298D01*
X432104Y152871D01*
X432072Y152567D01*
X432060Y152499D01*
X432052Y152469D01*
X432033Y152415D01*
X432034Y152401D01*
X431783Y152150D01*
X431205Y150755D01*
Y149245D01*
X431783Y147850D01*
X432850Y146783D01*
X434245Y146205D01*
X435755D01*
X437150Y146783D01*
X438217Y147850D01*
X438795Y149245D01*
Y150755D01*
X438217Y152150D01*
X437966Y152401D01*
X437967Y152415D01*
X437948Y152469D01*
X437940Y152500D01*
X437933Y152543D01*
X437877Y153318D01*
X437875Y153559D01*
X437824Y153677D01*
Y188830D01*
X441170Y192176D01*
X462500D01*
X462500Y192176D01*
X463581Y192391D01*
X464497Y193003D01*
X476997Y205503D01*
X476997Y205503D01*
X477609Y206419D01*
X477824Y207500D01*
Y267500D01*
X477609Y268581D01*
X476997Y269497D01*
X476997Y269497D01*
X467097Y279397D01*
X467049Y279516D01*
X466867Y279702D01*
X466577Y280018D01*
X466385Y280256D01*
X466347Y280312D01*
X466330Y280339D01*
X466306Y280390D01*
X466295Y280400D01*
Y280755D01*
X465717Y282150D01*
X464650Y283217D01*
X463255Y283795D01*
D02*
G37*
G36*
X450755Y256295D02*
X449245D01*
X447850Y255717D01*
X446783Y254650D01*
X446205Y253255D01*
Y251745D01*
X446783Y250350D01*
X447850Y249283D01*
X449245Y248705D01*
X450755D01*
X452150Y249283D01*
X452508Y249641D01*
X452743Y249729D01*
X452855Y249834D01*
X452926Y249890D01*
X453002Y249939D01*
X453083Y249983D01*
X453174Y250021D01*
X453276Y250055D01*
X453392Y250084D01*
X453523Y250105D01*
X453670Y250120D01*
X453876Y250126D01*
X454008Y250186D01*
X458513D01*
X465658Y243041D01*
Y220486D01*
X454107Y208934D01*
X434120D01*
X433234Y208758D01*
X432483Y208256D01*
X420863Y196637D01*
X420362Y195886D01*
X420186Y195000D01*
Y167347D01*
X419776Y167069D01*
X418915Y166858D01*
X414470Y171303D01*
X414419Y171438D01*
X414278Y171588D01*
X414184Y171702D01*
X414107Y171810D01*
X414045Y171912D01*
X413997Y172008D01*
X413960Y172100D01*
X413933Y172188D01*
X413915Y172276D01*
X413904Y172367D01*
X413899Y172520D01*
X413795Y172749D01*
Y173255D01*
X413217Y174650D01*
X412150Y175717D01*
X410755Y176295D01*
X409245D01*
X407850Y175717D01*
X406783Y174650D01*
X406205Y173255D01*
Y171745D01*
X406783Y170350D01*
X407850Y169283D01*
X409245Y168705D01*
X409751D01*
X409980Y168601D01*
X410134Y168596D01*
X410224Y168585D01*
X410312Y168567D01*
X410400Y168540D01*
X410492Y168503D01*
X410588Y168455D01*
X410690Y168393D01*
X410798Y168316D01*
X410912Y168222D01*
X411062Y168081D01*
X411197Y168029D01*
X415186Y164041D01*
Y77347D01*
X414776Y77069D01*
X413915Y76858D01*
X409137Y81637D01*
X408386Y82138D01*
X407500Y82315D01*
X376297D01*
X375411Y82138D01*
X374660Y81637D01*
X373096Y80072D01*
X372960Y80021D01*
X372810Y79880D01*
X372696Y79786D01*
X372588Y79708D01*
X372486Y79647D01*
X372390Y79599D01*
X372299Y79562D01*
X372210Y79535D01*
X372122Y79516D01*
X372032Y79506D01*
X371879Y79500D01*
X371649Y79397D01*
X371143D01*
X369749Y78819D01*
X368681Y77751D01*
X368103Y76357D01*
Y74847D01*
X368681Y73452D01*
X369749Y72384D01*
X371143Y71807D01*
X372653D01*
X374048Y72384D01*
X375116Y73452D01*
X375693Y74847D01*
Y75353D01*
X375797Y75582D01*
X375802Y75735D01*
X375813Y75825D01*
X375832Y75913D01*
X375859Y76002D01*
X375895Y76093D01*
X375943Y76189D01*
X376005Y76291D01*
X376082Y76399D01*
X376177Y76514D01*
X376317Y76663D01*
X376369Y76799D01*
X377255Y77685D01*
X406541D01*
X410186Y74041D01*
Y47500D01*
X410362Y46614D01*
X410863Y45863D01*
X418363Y38363D01*
X419114Y37862D01*
X420000Y37685D01*
X459741D01*
X460152Y37063D01*
X460302Y36451D01*
X455368Y31517D01*
X266503D01*
X265718Y32302D01*
X265666Y32438D01*
X265525Y32587D01*
X265431Y32701D01*
X265354Y32810D01*
X265292Y32912D01*
X265244Y33008D01*
X265207Y33099D01*
X265180Y33188D01*
X265162Y33276D01*
X265151Y33366D01*
X265146Y33519D01*
X265042Y33748D01*
Y34254D01*
X264464Y35649D01*
X263397Y36717D01*
X262002Y37294D01*
X260492D01*
X259097Y36717D01*
X258030Y35649D01*
X257452Y34254D01*
Y32745D01*
X258030Y31350D01*
X259097Y30282D01*
X260492Y29704D01*
X260621D01*
X260925Y29517D01*
X260969Y29210D01*
X260939Y29110D01*
X260190Y28262D01*
X260147Y28247D01*
X257276D01*
X253221Y32302D01*
X253169Y32438D01*
X253029Y32587D01*
X252935Y32701D01*
X252857Y32810D01*
X252796Y32912D01*
X252747Y33008D01*
X252711Y33099D01*
X252684Y33188D01*
X252665Y33276D01*
X252654Y33366D01*
X252649Y33519D01*
X252545Y33748D01*
Y34254D01*
X251968Y35649D01*
X250900Y36717D01*
X249505Y37294D01*
X247995D01*
X246601Y36717D01*
X245533Y35649D01*
X244955Y34254D01*
Y32745D01*
X245533Y31350D01*
X246601Y30282D01*
X247995Y29704D01*
X248501D01*
X248731Y29601D01*
X248884Y29596D01*
X248974Y29585D01*
X249062Y29566D01*
X249151Y29539D01*
X249242Y29502D01*
X249338Y29454D01*
X249440Y29392D01*
X249548Y29316D01*
X249662Y29221D01*
X249812Y29080D01*
X249948Y29029D01*
X252826Y26150D01*
X252340Y24977D01*
X248049D01*
X240724Y32302D01*
X240673Y32438D01*
X240532Y32587D01*
X240438Y32702D01*
X240361Y32810D01*
X240299Y32912D01*
X240250Y33008D01*
X240214Y33099D01*
X240187Y33188D01*
X240168Y33276D01*
X240157Y33366D01*
X240152Y33519D01*
X240049Y33748D01*
Y34254D01*
X239471Y35649D01*
X238403Y36717D01*
X237008Y37294D01*
X235499D01*
X234104Y36717D01*
X233036Y35649D01*
X232458Y34254D01*
Y32745D01*
X233036Y31350D01*
X234104Y30282D01*
X235499Y29704D01*
X236005D01*
X236234Y29601D01*
X236387Y29596D01*
X236477Y29585D01*
X236565Y29566D01*
X236654Y29539D01*
X236745Y29502D01*
X236841Y29454D01*
X236943Y29392D01*
X237051Y29315D01*
X237166Y29221D01*
X237315Y29080D01*
X237451Y29029D01*
X245454Y21026D01*
X246205Y20524D01*
X247090Y20348D01*
X301363D01*
X301960Y19078D01*
X300885Y17469D01*
X300398Y15021D01*
Y13294D01*
X313191D01*
Y15021D01*
X312704Y17469D01*
X311629Y19078D01*
X312227Y20348D01*
X387774D01*
X388371Y19078D01*
X387296Y17469D01*
X386809Y15021D01*
Y13294D01*
X399602D01*
Y15021D01*
X399115Y17469D01*
X398040Y19078D01*
X398637Y20348D01*
X459036D01*
X459922Y20524D01*
X460672Y21026D01*
X507972Y68325D01*
X508473Y69076D01*
X508649Y69962D01*
Y176165D01*
X508473Y177051D01*
X507972Y177802D01*
X494470Y191303D01*
X494419Y191438D01*
X494278Y191588D01*
X494184Y191702D01*
X494107Y191810D01*
X494045Y191912D01*
X493997Y192008D01*
X493960Y192100D01*
X493933Y192188D01*
X493915Y192276D01*
X493904Y192367D01*
X493899Y192520D01*
X493795Y192749D01*
Y193255D01*
X493217Y194650D01*
X492150Y195717D01*
X490755Y196295D01*
X489245D01*
X487850Y195717D01*
X486783Y194650D01*
X486205Y193255D01*
Y191745D01*
X486783Y190350D01*
X487850Y189283D01*
X489245Y188705D01*
X489751D01*
X489980Y188601D01*
X490134Y188596D01*
X490224Y188585D01*
X490312Y188567D01*
X490400Y188540D01*
X490492Y188503D01*
X490588Y188455D01*
X490690Y188393D01*
X490798Y188316D01*
X490912Y188222D01*
X491062Y188081D01*
X491197Y188029D01*
X504021Y175206D01*
Y168412D01*
X502847Y167926D01*
X494470Y176303D01*
X494419Y176438D01*
X494278Y176588D01*
X494184Y176702D01*
X494107Y176810D01*
X494045Y176912D01*
X493997Y177008D01*
X493960Y177100D01*
X493933Y177188D01*
X493915Y177276D01*
X493904Y177367D01*
X493899Y177520D01*
X493795Y177749D01*
Y178255D01*
X493217Y179650D01*
X492150Y180717D01*
X490755Y181295D01*
X489245D01*
X487850Y180717D01*
X486783Y179650D01*
X486205Y178255D01*
Y176745D01*
X486783Y175350D01*
X487850Y174283D01*
X489245Y173705D01*
X489751D01*
X489980Y173601D01*
X490134Y173596D01*
X490224Y173585D01*
X490312Y173567D01*
X490400Y173540D01*
X490492Y173503D01*
X490588Y173455D01*
X490690Y173393D01*
X490798Y173316D01*
X490912Y173222D01*
X491062Y173081D01*
X491197Y173029D01*
X500751Y163476D01*
Y156682D01*
X499577Y156196D01*
X494470Y161303D01*
X494419Y161438D01*
X494278Y161588D01*
X494184Y161702D01*
X494107Y161810D01*
X494045Y161912D01*
X493997Y162008D01*
X493960Y162100D01*
X493933Y162188D01*
X493915Y162276D01*
X493904Y162367D01*
X493899Y162520D01*
X493795Y162749D01*
Y163255D01*
X493217Y164650D01*
X492150Y165717D01*
X490755Y166295D01*
X489245D01*
X487850Y165717D01*
X486783Y164650D01*
X486205Y163255D01*
Y161745D01*
X486783Y160350D01*
X487850Y159283D01*
X489245Y158705D01*
X489751D01*
X489980Y158601D01*
X490134Y158596D01*
X490224Y158585D01*
X490312Y158567D01*
X490400Y158540D01*
X490492Y158503D01*
X490588Y158455D01*
X490690Y158393D01*
X490798Y158316D01*
X490912Y158222D01*
X491062Y158081D01*
X491197Y158029D01*
X497481Y151746D01*
Y84455D01*
X496211Y83606D01*
X495755Y83795D01*
X494245D01*
X492850Y83217D01*
X491783Y82150D01*
X491205Y80755D01*
Y79968D01*
X490880Y79120D01*
X490032Y78795D01*
X489245D01*
X487850Y78217D01*
X487492Y77859D01*
X487257Y77771D01*
X487145Y77666D01*
X487074Y77610D01*
X486998Y77561D01*
X486917Y77517D01*
X486826Y77479D01*
X486724Y77445D01*
X486608Y77416D01*
X486477Y77394D01*
X486330Y77380D01*
X486124Y77374D01*
X485992Y77315D01*
X460000D01*
X459114Y77138D01*
X458363Y76637D01*
X441197Y59471D01*
X441062Y59419D01*
X440912Y59278D01*
X440798Y59184D01*
X440690Y59107D01*
X440588Y59045D01*
X440492Y58997D01*
X440400Y58960D01*
X440312Y58933D01*
X440224Y58915D01*
X440134Y58904D01*
X439980Y58899D01*
X439751Y58795D01*
X439245D01*
X437850Y58217D01*
X436783Y57150D01*
X436205Y55755D01*
Y54245D01*
X436783Y52850D01*
X437850Y51783D01*
X439245Y51205D01*
X440032D01*
X440880Y50880D01*
X441205Y50032D01*
Y49245D01*
X441479Y48584D01*
X440659Y47315D01*
X424507D01*
X424209Y47726D01*
X424650Y49283D01*
X425717Y50350D01*
X426295Y51745D01*
Y53255D01*
X425717Y54650D01*
X425359Y55008D01*
X425271Y55243D01*
X425166Y55355D01*
X425110Y55426D01*
X425061Y55502D01*
X425017Y55583D01*
X424979Y55674D01*
X424945Y55776D01*
X424916Y55892D01*
X424894Y56023D01*
X424880Y56170D01*
X424874Y56376D01*
X424814Y56508D01*
Y194041D01*
X435079Y204305D01*
X455065D01*
X455951Y204482D01*
X456702Y204983D01*
X469609Y217891D01*
X470111Y218641D01*
X470287Y219527D01*
Y243999D01*
X470111Y244885D01*
X469609Y245636D01*
X461109Y254137D01*
X460358Y254638D01*
X459472Y254814D01*
X454008D01*
X453876Y254874D01*
X453670Y254880D01*
X453523Y254894D01*
X453392Y254916D01*
X453276Y254945D01*
X453174Y254979D01*
X453083Y255017D01*
X453002Y255061D01*
X452926Y255110D01*
X452855Y255166D01*
X452743Y255271D01*
X452508Y255359D01*
X452150Y255717D01*
X450755Y256295D01*
D02*
G37*
G36*
X53730Y131375D02*
X51268D01*
X51137Y131321D01*
X50999Y131348D01*
X48584Y130868D01*
X48467Y130790D01*
X48327D01*
X47289Y130360D01*
X47184Y130332D01*
X47090Y130277D01*
X46052Y129847D01*
X45952Y129748D01*
X45814Y129720D01*
X43767Y128352D01*
X43689Y128235D01*
X43558Y128181D01*
X42688Y127311D01*
X42688Y127311D01*
X32699Y117322D01*
X32645Y117192D01*
X32528Y117114D01*
X29748Y112953D01*
X29721Y112815D01*
X29621Y112716D01*
X27706Y108093D01*
Y107952D01*
X27628Y107835D01*
X26652Y102928D01*
X26680Y102790D01*
X26626Y102660D01*
Y100158D01*
Y75000D01*
X26654Y74932D01*
Y63475D01*
X26958Y61166D01*
X27849Y59014D01*
X29267Y57167D01*
X31115Y55749D01*
X33266Y54858D01*
X35575Y54554D01*
X41203D01*
X41213Y54550D01*
X41221Y54554D01*
X48972D01*
X50034Y53939D01*
X52406Y52268D01*
X58024Y47473D01*
X61035Y44559D01*
X61935Y43663D01*
X61935Y43663D01*
X66025Y40170D01*
X70610Y37360D01*
X75580Y35302D01*
X80809Y34046D01*
X86171Y33624D01*
Y33654D01*
X180000D01*
Y33623D01*
X184351Y34051D01*
X188535Y35320D01*
X192391Y37381D01*
X195771Y40155D01*
X198544Y43535D01*
X200606Y47391D01*
X201875Y51575D01*
X202303Y55926D01*
X202271D01*
Y84500D01*
X201970Y86789D01*
X201086Y88923D01*
X199681Y90755D01*
X197849Y92161D01*
X195715Y93044D01*
X193426Y93346D01*
X191136Y93044D01*
X189003Y92161D01*
X187171Y90755D01*
X185765Y88923D01*
X184882Y86789D01*
X184580Y84500D01*
Y55926D01*
X184595Y55813D01*
X184266Y54159D01*
X183265Y52661D01*
X181767Y51660D01*
X180113Y51331D01*
X180000Y51346D01*
X86171D01*
X86047Y51329D01*
X82936Y51636D01*
X79825Y52579D01*
X76958Y54112D01*
X75402Y55389D01*
X74466Y56194D01*
X74465Y56194D01*
X69929Y60731D01*
X69903Y60798D01*
X67139Y63665D01*
X64781Y66330D01*
X62813Y68807D01*
X61235Y71088D01*
X60048Y73164D01*
X59647Y74094D01*
Y74932D01*
X59675Y75000D01*
Y101295D01*
X59718Y102176D01*
X60069Y103938D01*
X60743Y105566D01*
X61741Y107059D01*
X62333Y107713D01*
X63180Y108560D01*
X63234Y108690D01*
X63351Y108768D01*
X64719Y110815D01*
X64746Y110953D01*
X64846Y111053D01*
X65276Y112091D01*
X65330Y112185D01*
X65358Y112290D01*
X65788Y113328D01*
Y113469D01*
X65867Y113586D01*
X66347Y116001D01*
X66319Y116139D01*
X66373Y116269D01*
Y118731D01*
X66319Y118861D01*
X66347Y118999D01*
X65867Y121414D01*
X65788Y121531D01*
Y121672D01*
X65359Y122710D01*
X65330Y122815D01*
X65276Y122909D01*
X64846Y123947D01*
X64746Y124047D01*
X64719Y124185D01*
X63351Y126232D01*
X63234Y126310D01*
X63180Y126440D01*
X62310Y127311D01*
X61439Y128181D01*
X61309Y128235D01*
X61231Y128352D01*
X59183Y129720D01*
X59045Y129748D01*
X58946Y129847D01*
X57908Y130277D01*
X57814Y130332D01*
X57709Y130360D01*
X56671Y130790D01*
X56530D01*
X56413Y130868D01*
X53998Y131348D01*
X53860Y131321D01*
X53730Y131375D01*
D02*
G37*
G36*
X395755Y73795D02*
X394245D01*
X392850Y73217D01*
X392492Y72859D01*
X392257Y72771D01*
X392145Y72666D01*
X392074Y72610D01*
X391998Y72561D01*
X391917Y72517D01*
X391826Y72479D01*
X391724Y72445D01*
X391608Y72416D01*
X391477Y72394D01*
X391330Y72380D01*
X391124Y72374D01*
X390992Y72315D01*
X390000D01*
X389114Y72138D01*
X388363Y71637D01*
X371541Y54815D01*
X341508D01*
X341376Y54874D01*
X341170Y54880D01*
X341023Y54894D01*
X340892Y54916D01*
X340776Y54945D01*
X340674Y54979D01*
X340583Y55017D01*
X340502Y55061D01*
X340426Y55110D01*
X340355Y55166D01*
X340243Y55271D01*
X340008Y55359D01*
X339650Y55717D01*
X338255Y56295D01*
X336745D01*
X335350Y55717D01*
X334283Y54650D01*
X333705Y53255D01*
Y51745D01*
X334283Y50350D01*
X335350Y49283D01*
X336745Y48705D01*
X338255D01*
X339650Y49283D01*
X340008Y49641D01*
X340243Y49729D01*
X340355Y49834D01*
X340426Y49890D01*
X340502Y49939D01*
X340583Y49983D01*
X340674Y50021D01*
X340776Y50055D01*
X340892Y50084D01*
X341023Y50106D01*
X341170Y50120D01*
X341376Y50126D01*
X341508Y50185D01*
X372500D01*
X373386Y50362D01*
X373508Y50443D01*
X374534Y49601D01*
X374520Y49568D01*
Y47472D01*
X375322Y45535D01*
X376805Y44052D01*
X378742Y43250D01*
X380838D01*
X382775Y44052D01*
X384258Y45535D01*
X385060Y47472D01*
Y49568D01*
X384258Y51505D01*
X382775Y52988D01*
X380838Y53790D01*
X378859D01*
X378605Y54096D01*
X378223Y54950D01*
X387210Y63936D01*
X388196Y63127D01*
X387296Y61779D01*
X386809Y59331D01*
Y55102D01*
X399602D01*
Y59331D01*
X399115Y61779D01*
X397729Y63854D01*
X395975Y65026D01*
X395969Y65057D01*
X396100Y66336D01*
X396105Y66350D01*
X397150Y66783D01*
X398217Y67850D01*
X398795Y69245D01*
Y70755D01*
X398217Y72150D01*
X397150Y73217D01*
X395755Y73795D01*
D02*
G37*
G36*
X308065Y65475D02*
Y55102D01*
X313191D01*
Y59331D01*
X312704Y61779D01*
X311318Y63854D01*
X309242Y65241D01*
X308065Y65475D01*
D02*
G37*
G36*
X305525D02*
X304347Y65241D01*
X302271Y63854D01*
X300885Y61779D01*
X300398Y59331D01*
Y55102D01*
X305525D01*
Y65475D01*
D02*
G37*
G36*
X321258Y53790D02*
X319162D01*
X317225Y52988D01*
X315742Y51505D01*
X314940Y49568D01*
Y47472D01*
X315742Y45535D01*
X317225Y44052D01*
X319162Y43250D01*
X321258D01*
X323195Y44052D01*
X324678Y45535D01*
X325480Y47472D01*
Y49568D01*
X324678Y51505D01*
X323195Y52988D01*
X321258Y53790D01*
D02*
G37*
G36*
X399602Y52562D02*
X394475D01*
Y42189D01*
X395653Y42423D01*
X397729Y43810D01*
X399115Y45885D01*
X399602Y48333D01*
Y52562D01*
D02*
G37*
G36*
X391935D02*
X386809D01*
Y48333D01*
X387296Y45885D01*
X388682Y43810D01*
X390757Y42423D01*
X391935Y42189D01*
Y52562D01*
D02*
G37*
G36*
X313191D02*
X308065D01*
Y42189D01*
X309242Y42423D01*
X311318Y43810D01*
X312704Y45885D01*
X313191Y48333D01*
Y52562D01*
D02*
G37*
G36*
X305525D02*
X300398D01*
Y48333D01*
X300885Y45885D01*
X302271Y43810D01*
X304347Y42423D01*
X305525Y42189D01*
Y52562D01*
D02*
G37*
G36*
X509841Y51270D02*
X508770D01*
Y28770D01*
X531270D01*
Y29841D01*
X530356Y34434D01*
X528565Y38759D01*
X525963Y42653D01*
X522653Y45963D01*
X518759Y48565D01*
X514434Y50356D01*
X509841Y51270D01*
D02*
G37*
G36*
X506230D02*
X505159D01*
X500566Y50356D01*
X496241Y48565D01*
X492347Y45963D01*
X489037Y42653D01*
X486435Y38759D01*
X484644Y34434D01*
X483730Y29841D01*
Y28770D01*
X506230D01*
Y51270D01*
D02*
G37*
G36*
X23851Y27770D02*
X21147D01*
X18535Y27070D01*
X16193Y25718D01*
X14281Y23806D01*
X12929Y21464D01*
X12229Y18852D01*
Y16148D01*
X12929Y13536D01*
X14281Y11194D01*
X16193Y9282D01*
X18535Y7930D01*
X21147Y7230D01*
X23851D01*
X26463Y7930D01*
X28805Y9282D01*
X30717Y11194D01*
X32069Y13536D01*
X32769Y16148D01*
Y18852D01*
X32069Y21464D01*
X30717Y23806D01*
X28805Y25718D01*
X26463Y27070D01*
X23851Y27770D01*
D02*
G37*
G36*
X133851Y27770D02*
X131146D01*
X128534Y27070D01*
X126193Y25718D01*
X124281Y23806D01*
X122928Y21464D01*
X122229Y18852D01*
Y16148D01*
X122928Y13536D01*
X124281Y11194D01*
X126193Y9282D01*
X128534Y7930D01*
X131146Y7230D01*
X133851D01*
X136463Y7930D01*
X138805Y9282D01*
X140717Y11194D01*
X142069Y13536D01*
X142769Y16148D01*
Y18852D01*
X142069Y21464D01*
X140717Y23806D01*
X138805Y25718D01*
X136463Y27070D01*
X133851Y27770D01*
D02*
G37*
G36*
X531270Y26230D02*
X508770D01*
Y3730D01*
X509841D01*
X514434Y4643D01*
X518759Y6435D01*
X522653Y9037D01*
X525963Y12348D01*
X528565Y16241D01*
X530356Y20566D01*
X531270Y25159D01*
Y26230D01*
D02*
G37*
G36*
X506230D02*
X483730D01*
Y25159D01*
X484644Y20566D01*
X486435Y16241D01*
X489037Y12348D01*
X492347Y9037D01*
X496241Y6435D01*
X500566Y4643D01*
X505159Y3730D01*
X506230D01*
Y26230D01*
D02*
G37*
%LPD*%
G36*
X482530Y329779D02*
X482552Y329516D01*
X482590Y329265D01*
X482644Y329025D01*
X482715Y328798D01*
X482802Y328584D01*
X482905Y328381D01*
X483024Y328190D01*
X483160Y328012D01*
X483312Y327845D01*
X482235Y326768D01*
X482068Y326920D01*
X481890Y327056D01*
X481699Y327175D01*
X481496Y327278D01*
X481282Y327365D01*
X481055Y327436D01*
X480815Y327490D01*
X480564Y327528D01*
X480301Y327550D01*
X480025Y327555D01*
X482525Y330055D01*
X482530Y329779D01*
D02*
G37*
G36*
Y309779D02*
X482552Y309516D01*
X482590Y309265D01*
X482644Y309025D01*
X482715Y308798D01*
X482802Y308584D01*
X482905Y308381D01*
X483024Y308190D01*
X483160Y308012D01*
X483312Y307845D01*
X482235Y306768D01*
X482068Y306920D01*
X481890Y307056D01*
X481699Y307175D01*
X481496Y307278D01*
X481282Y307365D01*
X481055Y307436D01*
X480815Y307490D01*
X480564Y307528D01*
X480301Y307550D01*
X480025Y307555D01*
X482525Y310055D01*
X482530Y309779D01*
D02*
G37*
G36*
X482398Y289169D02*
X482391Y289040D01*
X482404Y288908D01*
X482436Y288772D01*
X482488Y288633D01*
X482559Y288490D01*
X482650Y288344D01*
X482760Y288194D01*
X482890Y288040D01*
X483039Y287883D01*
X481961Y286805D01*
X481795Y286964D01*
X481475Y287224D01*
X481322Y287325D01*
X481173Y287406D01*
X481028Y287468D01*
X480887Y287511D01*
X480751Y287535D01*
X480620Y287539D01*
X480492Y287523D01*
X482424Y289294D01*
X482398Y289169D01*
D02*
G37*
G36*
X468272Y156197D02*
X468302Y155975D01*
X468353Y155756D01*
X468423Y155539D01*
X468513Y155326D01*
X468624Y155115D01*
X468755Y154908D01*
X468905Y154703D01*
X469076Y154502D01*
X469268Y154303D01*
X465732D01*
X465924Y154502D01*
X466095Y154703D01*
X466245Y154908D01*
X466376Y155115D01*
X466487Y155326D01*
X466577Y155539D01*
X466647Y155756D01*
X466698Y155975D01*
X466728Y156197D01*
X466738Y156422D01*
X468262D01*
X468272Y156197D01*
D02*
G37*
G36*
X472932Y155660D02*
X473110Y155524D01*
X473301Y155405D01*
X473504Y155302D01*
X473718Y155215D01*
X473946Y155144D01*
X474185Y155090D01*
X474436Y155052D01*
X474699Y155030D01*
X474975Y155025D01*
X472475Y152525D01*
X472470Y152801D01*
X472448Y153064D01*
X472410Y153315D01*
X472356Y153555D01*
X472285Y153782D01*
X472198Y153996D01*
X472095Y154199D01*
X471976Y154390D01*
X471840Y154568D01*
X471688Y154735D01*
X472765Y155812D01*
X472932Y155660D01*
D02*
G37*
G36*
X463312Y154735D02*
X463160Y154568D01*
X463024Y154390D01*
X462905Y154199D01*
X462802Y153996D01*
X462715Y153782D01*
X462644Y153555D01*
X462590Y153315D01*
X462552Y153064D01*
X462530Y152801D01*
X462525Y152525D01*
X460025Y155025D01*
X460301Y155030D01*
X460564Y155052D01*
X460815Y155090D01*
X461055Y155144D01*
X461282Y155215D01*
X461497Y155302D01*
X461699Y155405D01*
X461890Y155524D01*
X462068Y155660D01*
X462235Y155812D01*
X463312Y154735D01*
D02*
G37*
G36*
X241622Y333041D02*
X241491Y332875D01*
X241376Y332698D01*
X241276Y332511D01*
X241192Y332313D01*
X241123Y332105D01*
X241069Y331886D01*
X241031Y331657D01*
X241008Y331417D01*
X241000Y331166D01*
X239000D01*
X238992Y331417D01*
X238969Y331657D01*
X238931Y331886D01*
X238877Y332105D01*
X238808Y332313D01*
X238724Y332511D01*
X238624Y332698D01*
X238509Y332875D01*
X238378Y333041D01*
X238232Y333197D01*
X241768D01*
X241622Y333041D01*
D02*
G37*
G36*
X231622D02*
X231491Y332875D01*
X231376Y332698D01*
X231276Y332511D01*
X231192Y332313D01*
X231123Y332105D01*
X231069Y331886D01*
X231031Y331657D01*
X231008Y331417D01*
X231000Y331166D01*
X229000D01*
X228992Y331417D01*
X228969Y331657D01*
X228931Y331886D01*
X228877Y332105D01*
X228808Y332313D01*
X228724Y332511D01*
X228624Y332698D01*
X228509Y332875D01*
X228378Y333041D01*
X228232Y333197D01*
X231768D01*
X231622Y333041D01*
D02*
G37*
G36*
X45032Y245661D02*
X45057Y245452D01*
X45101Y245245D01*
X45163Y245042D01*
X45243Y244843D01*
X45341Y244646D01*
X45458Y244454D01*
X45593Y244265D01*
X45746Y244079D01*
X45918Y243896D01*
X44504Y242482D01*
X44321Y242654D01*
X44135Y242807D01*
X43946Y242942D01*
X43753Y243059D01*
X43557Y243157D01*
X43358Y243237D01*
X43155Y243299D01*
X42948Y243343D01*
X42738Y243368D01*
X42525Y243375D01*
X45025Y245875D01*
X45032Y245661D01*
D02*
G37*
G36*
X277532Y245661D02*
X277557Y245452D01*
X277601Y245245D01*
X277663Y245042D01*
X277743Y244843D01*
X277841Y244646D01*
X277958Y244454D01*
X278093Y244265D01*
X278246Y244079D01*
X278418Y243896D01*
X277004Y242482D01*
X276821Y242654D01*
X276635Y242807D01*
X276446Y242942D01*
X276253Y243059D01*
X276057Y243157D01*
X275858Y243237D01*
X275655Y243299D01*
X275448Y243343D01*
X275238Y243368D01*
X275025Y243375D01*
X277525Y245875D01*
X277532Y245661D01*
D02*
G37*
G36*
X153197Y240732D02*
X153132Y240783D01*
X153043Y240829D01*
X152930Y240869D01*
X152792Y240904D01*
X152630Y240933D01*
X152233Y240976D01*
X151738Y240997D01*
X151454Y241000D01*
Y244000D01*
X151738Y244003D01*
X152630Y244067D01*
X152792Y244096D01*
X152930Y244131D01*
X153043Y244171D01*
X153132Y244217D01*
X153197Y244268D01*
Y240732D01*
D02*
G37*
G36*
X393508Y241083D02*
X393531Y240843D01*
X393569Y240614D01*
X393623Y240395D01*
X393692Y240187D01*
X393776Y239989D01*
X393876Y239802D01*
X393991Y239625D01*
X394122Y239459D01*
X394268Y239303D01*
X390732D01*
X390878Y239459D01*
X391009Y239625D01*
X391124Y239802D01*
X391224Y239989D01*
X391308Y240187D01*
X391377Y240395D01*
X391431Y240614D01*
X391469Y240843D01*
X391492Y241083D01*
X391500Y241334D01*
X393500D01*
X393508Y241083D01*
D02*
G37*
G36*
X387188D02*
X387211Y240843D01*
X387249Y240614D01*
X387303Y240395D01*
X387372Y240187D01*
X387456Y239989D01*
X387556Y239802D01*
X387671Y239625D01*
X387802Y239459D01*
X387948Y239303D01*
X384412D01*
X384558Y239459D01*
X384689Y239625D01*
X384804Y239802D01*
X384904Y239989D01*
X384988Y240187D01*
X385057Y240395D01*
X385111Y240614D01*
X385149Y240843D01*
X385172Y241083D01*
X385180Y241334D01*
X387180D01*
X387188Y241083D01*
D02*
G37*
G36*
X442395Y236254D02*
X442182Y236247D01*
X441972Y236222D01*
X441765Y236179D01*
X441562Y236117D01*
X441363Y236037D01*
X441167Y235938D01*
X440974Y235821D01*
X440785Y235686D01*
X440599Y235533D01*
X440416Y235361D01*
X439002Y236776D01*
X439174Y236958D01*
X439327Y237144D01*
X439462Y237333D01*
X439579Y237526D01*
X439677Y237722D01*
X439757Y237922D01*
X439819Y238125D01*
X439863Y238331D01*
X439888Y238541D01*
X439895Y238754D01*
X442395Y236254D01*
D02*
G37*
G36*
X454083Y236885D02*
X453927Y236743D01*
X453787Y236588D01*
X453663Y236422D01*
X453557Y236243D01*
X453466Y236053D01*
X453392Y235850D01*
X453335Y235635D01*
X453294Y235407D01*
X453269Y235168D01*
X453261Y234916D01*
X451261Y235100D01*
X451254Y235349D01*
X451233Y235589D01*
X451198Y235820D01*
X451149Y236042D01*
X451086Y236255D01*
X451008Y236458D01*
X450918Y236653D01*
X450812Y236838D01*
X450693Y237015D01*
X450560Y237182D01*
X454083Y236885D01*
D02*
G37*
G36*
X447440Y232449D02*
X447227Y232442D01*
X447018Y232416D01*
X446811Y232373D01*
X446608Y232311D01*
X446409Y232231D01*
X446213Y232132D01*
X446020Y232016D01*
X445830Y231881D01*
X445645Y231727D01*
X445462Y231556D01*
X444048Y232970D01*
X444220Y233152D01*
X444373Y233338D01*
X444508Y233528D01*
X444625Y233720D01*
X444723Y233916D01*
X444803Y234116D01*
X444865Y234319D01*
X444909Y234525D01*
X444934Y234735D01*
X444941Y234948D01*
X447440Y232449D01*
D02*
G37*
G36*
X459122Y233041D02*
X458991Y232875D01*
X458876Y232698D01*
X458776Y232511D01*
X458692Y232313D01*
X458623Y232105D01*
X458569Y231886D01*
X458531Y231657D01*
X458508Y231417D01*
X458500Y231166D01*
X456500D01*
X456492Y231417D01*
X456469Y231657D01*
X456431Y231886D01*
X456377Y232105D01*
X456308Y232313D01*
X456224Y232511D01*
X456124Y232698D01*
X456009Y232875D01*
X455878Y233041D01*
X455732Y233197D01*
X459268D01*
X459122Y233041D01*
D02*
G37*
G36*
X356959Y232622D02*
X357125Y232491D01*
X357302Y232376D01*
X357489Y232276D01*
X357687Y232192D01*
X357895Y232123D01*
X358114Y232069D01*
X358343Y232031D01*
X358583Y232008D01*
X358834Y232000D01*
Y230000D01*
X358583Y229993D01*
X358343Y229969D01*
X358114Y229931D01*
X357895Y229877D01*
X357687Y229808D01*
X357489Y229724D01*
X357302Y229624D01*
X357125Y229509D01*
X356959Y229379D01*
X356803Y229233D01*
Y232768D01*
X356959Y232622D01*
D02*
G37*
G36*
X127532Y230762D02*
X127557Y230552D01*
X127601Y230345D01*
X127663Y230142D01*
X127743Y229943D01*
X127841Y229747D01*
X127958Y229554D01*
X128093Y229365D01*
X128246Y229179D01*
X128418Y228997D01*
X127004Y227582D01*
X126821Y227754D01*
X126635Y227907D01*
X126446Y228042D01*
X126253Y228159D01*
X126057Y228257D01*
X125858Y228337D01*
X125655Y228399D01*
X125448Y228443D01*
X125239Y228468D01*
X125025Y228475D01*
X127525Y230975D01*
X127532Y230762D01*
D02*
G37*
G36*
X69368Y230817D02*
X69457Y230771D01*
X69570Y230731D01*
X69708Y230697D01*
X69870Y230667D01*
X70267Y230624D01*
X70762Y230603D01*
X71046Y230600D01*
Y227600D01*
X70762Y227598D01*
X69870Y227533D01*
X69708Y227504D01*
X69570Y227469D01*
X69457Y227429D01*
X69368Y227383D01*
X69303Y227333D01*
Y230868D01*
X69368Y230817D01*
D02*
G37*
G36*
X404417Y200043D02*
X404192Y200086D01*
X403972Y200105D01*
X403757Y200101D01*
X403548Y200074D01*
X403343Y200023D01*
X403143Y199950D01*
X402948Y199853D01*
X402758Y199734D01*
X402573Y199591D01*
X402392Y199425D01*
X401442Y200989D01*
X401602Y201158D01*
X401750Y201335D01*
X401887Y201520D01*
X402013Y201713D01*
X402128Y201914D01*
X402231Y202122D01*
X402323Y202338D01*
X402404Y202562D01*
X402474Y202794D01*
X402532Y203034D01*
X404417Y200043D01*
D02*
G37*
G36*
X409975Y194975D02*
X409732Y194969D01*
X409498Y194945D01*
X409270Y194904D01*
X409050Y194846D01*
X408838Y194770D01*
X408632Y194676D01*
X408435Y194566D01*
X408245Y194438D01*
X408062Y194292D01*
X407886Y194129D01*
X406629Y195386D01*
X406792Y195562D01*
X406937Y195744D01*
X407066Y195935D01*
X407176Y196132D01*
X407270Y196338D01*
X407346Y196550D01*
X407404Y196770D01*
X407445Y196998D01*
X407469Y197232D01*
X407475Y197475D01*
X409975Y194975D01*
D02*
G37*
G36*
X408062Y190708D02*
X408245Y190562D01*
X408435Y190434D01*
X408632Y190324D01*
X408838Y190230D01*
X409050Y190154D01*
X409270Y190096D01*
X409498Y190055D01*
X409732Y190031D01*
X409975Y190025D01*
X407475Y187525D01*
X407469Y187768D01*
X407445Y188002D01*
X407404Y188230D01*
X407346Y188450D01*
X407270Y188662D01*
X407176Y188867D01*
X407066Y189065D01*
X406937Y189256D01*
X406792Y189438D01*
X406629Y189614D01*
X407886Y190871D01*
X408062Y190708D01*
D02*
G37*
G36*
X109588Y142196D02*
X109424Y142020D01*
X109279Y141837D01*
X109152Y141646D01*
X109044Y141448D01*
X108954Y141243D01*
X108882Y141031D01*
X108829Y140812D01*
X108794Y140586D01*
X108777Y140352D01*
X108778Y140111D01*
X106195Y142524D01*
X106439Y142538D01*
X106674Y142569D01*
X106902Y142616D01*
X107123Y142680D01*
X107336Y142760D01*
X107541Y142857D01*
X107738Y142970D01*
X107928Y143099D01*
X108110Y143245D01*
X108285Y143408D01*
X109588Y142196D01*
D02*
G37*
G36*
X103085D02*
X102922Y142020D01*
X102777Y141837D01*
X102650Y141646D01*
X102542Y141448D01*
X102451Y141243D01*
X102380Y141031D01*
X102326Y140812D01*
X102291Y140586D01*
X102275Y140352D01*
X102276Y140111D01*
X99693Y142524D01*
X99936Y142538D01*
X100172Y142569D01*
X100400Y142616D01*
X100620Y142680D01*
X100833Y142760D01*
X101038Y142857D01*
X101236Y142970D01*
X101426Y143099D01*
X101608Y143245D01*
X101782Y143408D01*
X103085Y142196D01*
D02*
G37*
G36*
X129109Y142114D02*
X128946Y141938D01*
X128800Y141756D01*
X128672Y141565D01*
X128561Y141368D01*
X128468Y141162D01*
X128392Y140950D01*
X128334Y140730D01*
X128293Y140502D01*
X128269Y140268D01*
X128263Y140025D01*
X125763Y142525D01*
X126005Y142531D01*
X126240Y142555D01*
X126468Y142596D01*
X126688Y142654D01*
X126900Y142730D01*
X127105Y142824D01*
X127303Y142934D01*
X127493Y143062D01*
X127676Y143208D01*
X127852Y143371D01*
X129109Y142114D01*
D02*
G37*
G36*
X116129D02*
X115966Y141938D01*
X115821Y141756D01*
X115693Y141565D01*
X115582Y141368D01*
X115489Y141162D01*
X115413Y140950D01*
X115354Y140730D01*
X115313Y140502D01*
X115289Y140268D01*
X115283Y140025D01*
X112784Y142525D01*
X113026Y142531D01*
X113261Y142555D01*
X113488Y142596D01*
X113708Y142654D01*
X113921Y142730D01*
X114126Y142824D01*
X114324Y142934D01*
X114514Y143062D01*
X114697Y143208D01*
X114872Y143371D01*
X116129Y142114D01*
D02*
G37*
G36*
X94082Y133742D02*
X95014Y132948D01*
X95943Y132249D01*
X96869Y131644D01*
X97793Y131134D01*
X98714Y130718D01*
X99633Y130397D01*
X100550Y130170D01*
X101463Y130037D01*
X102360Y130000D01*
X103732D01*
X106147Y129520D01*
X108422Y128577D01*
X110470Y127209D01*
X111340Y126339D01*
X111340Y126339D01*
X119560Y118119D01*
X121329Y116350D01*
X124109Y112190D01*
X126024Y107567D01*
X127000Y102660D01*
Y100158D01*
Y75000D01*
X96700D01*
Y101328D01*
X96650Y102345D01*
X96253Y104339D01*
X95475Y106217D01*
X94346Y107907D01*
X93662Y108661D01*
X92792Y109532D01*
X91424Y111579D01*
X90482Y113854D01*
X90001Y116269D01*
Y117500D01*
Y117626D01*
X90001Y117625D01*
X89963Y118536D01*
X89830Y119450D01*
X89603Y120367D01*
X89282Y121285D01*
X88866Y122207D01*
X88356Y123131D01*
X87751Y124057D01*
X87052Y124986D01*
X86258Y125918D01*
X85370Y126851D01*
X93148Y134630D01*
X94082Y133742D01*
D02*
G37*
G36*
X261008Y246083D02*
X261031Y245843D01*
X261069Y245614D01*
X261123Y245395D01*
X261192Y245187D01*
X261276Y244989D01*
X261376Y244802D01*
X261491Y244625D01*
X261622Y244459D01*
X261768Y244303D01*
X258232D01*
X258378Y244459D01*
X258509Y244625D01*
X258624Y244802D01*
X258724Y244989D01*
X258808Y245187D01*
X258877Y245395D01*
X258931Y245614D01*
X258969Y245843D01*
X258992Y246083D01*
X259000Y246334D01*
X261000D01*
X261008Y246083D01*
D02*
G37*
G36*
X353197Y242232D02*
X353041Y242378D01*
X352875Y242509D01*
X352698Y242624D01*
X352511Y242724D01*
X352313Y242808D01*
X352105Y242877D01*
X351886Y242931D01*
X351657Y242969D01*
X351417Y242992D01*
X351166Y243000D01*
Y245000D01*
X351417Y245007D01*
X351657Y245030D01*
X351886Y245069D01*
X352105Y245123D01*
X352313Y245192D01*
X352511Y245276D01*
X352698Y245376D01*
X352875Y245491D01*
X353041Y245621D01*
X353197Y245767D01*
Y242232D01*
D02*
G37*
G36*
X465035Y279893D02*
X465065Y279798D01*
X465117Y279690D01*
X465190Y279568D01*
X465284Y279432D01*
X465535Y279121D01*
X465869Y278756D01*
X466068Y278553D01*
X463947Y276432D01*
X463744Y276631D01*
X463068Y277216D01*
X462933Y277310D01*
X462811Y277383D01*
X462702Y277435D01*
X462607Y277465D01*
X462525Y277475D01*
X465025Y279975D01*
X465035Y279893D01*
D02*
G37*
G36*
X436503Y153262D02*
X436567Y152370D01*
X436596Y152208D01*
X436631Y152070D01*
X436671Y151957D01*
X436717Y151868D01*
X436768Y151803D01*
X433232D01*
X433283Y151868D01*
X433329Y151957D01*
X433369Y152070D01*
X433404Y152208D01*
X433433Y152370D01*
X433476Y152767D01*
X433497Y153262D01*
X433500Y153546D01*
X436500D01*
X436503Y153262D01*
D02*
G37*
G36*
X451959Y254122D02*
X452125Y253991D01*
X452302Y253876D01*
X452489Y253776D01*
X452687Y253692D01*
X452895Y253623D01*
X453114Y253569D01*
X453343Y253531D01*
X453583Y253508D01*
X453834Y253500D01*
Y251500D01*
X453583Y251492D01*
X453343Y251469D01*
X453114Y251431D01*
X452895Y251377D01*
X452687Y251308D01*
X452489Y251224D01*
X452302Y251124D01*
X452125Y251009D01*
X451959Y250878D01*
X451803Y250732D01*
Y254268D01*
X451959Y254122D01*
D02*
G37*
G36*
X492532Y192262D02*
X492557Y192052D01*
X492601Y191845D01*
X492663Y191642D01*
X492743Y191443D01*
X492841Y191247D01*
X492958Y191054D01*
X493093Y190865D01*
X493246Y190679D01*
X493418Y190496D01*
X492004Y189082D01*
X491821Y189254D01*
X491635Y189407D01*
X491446Y189542D01*
X491253Y189659D01*
X491057Y189757D01*
X490858Y189837D01*
X490655Y189899D01*
X490448Y189943D01*
X490238Y189968D01*
X490025Y189975D01*
X492525Y192475D01*
X492532Y192262D01*
D02*
G37*
G36*
Y177262D02*
X492557Y177052D01*
X492601Y176845D01*
X492663Y176642D01*
X492743Y176443D01*
X492841Y176247D01*
X492958Y176054D01*
X493093Y175865D01*
X493246Y175679D01*
X493418Y175496D01*
X492004Y174082D01*
X491821Y174254D01*
X491635Y174407D01*
X491446Y174542D01*
X491253Y174659D01*
X491057Y174757D01*
X490858Y174837D01*
X490655Y174899D01*
X490448Y174943D01*
X490238Y174968D01*
X490025Y174975D01*
X492525Y177475D01*
X492532Y177262D01*
D02*
G37*
G36*
X412532Y172262D02*
X412557Y172052D01*
X412601Y171845D01*
X412663Y171642D01*
X412743Y171443D01*
X412841Y171247D01*
X412958Y171054D01*
X413093Y170865D01*
X413246Y170679D01*
X413418Y170496D01*
X412004Y169082D01*
X411821Y169254D01*
X411635Y169407D01*
X411446Y169542D01*
X411253Y169659D01*
X411057Y169757D01*
X410858Y169837D01*
X410655Y169899D01*
X410448Y169943D01*
X410238Y169968D01*
X410025Y169975D01*
X412525Y172475D01*
X412532Y172262D01*
D02*
G37*
G36*
X492532Y162262D02*
X492557Y162052D01*
X492601Y161845D01*
X492663Y161642D01*
X492743Y161443D01*
X492841Y161247D01*
X492958Y161054D01*
X493093Y160865D01*
X493246Y160679D01*
X493418Y160496D01*
X492004Y159082D01*
X491821Y159254D01*
X491635Y159407D01*
X491446Y159542D01*
X491253Y159659D01*
X491057Y159757D01*
X490858Y159837D01*
X490655Y159899D01*
X490448Y159943D01*
X490238Y159968D01*
X490025Y159975D01*
X492525Y162475D01*
X492532Y162262D01*
D02*
G37*
G36*
X496622Y78041D02*
X496491Y77875D01*
X496376Y77698D01*
X496276Y77511D01*
X496192Y77313D01*
X496123Y77105D01*
X496069Y76886D01*
X496031Y76657D01*
X496008Y76417D01*
X496000Y76166D01*
X494000D01*
X493992Y76417D01*
X493969Y76657D01*
X493931Y76886D01*
X493877Y77105D01*
X493808Y77313D01*
X493724Y77511D01*
X493624Y77698D01*
X493509Y77875D01*
X493378Y78041D01*
X493232Y78197D01*
X496768D01*
X496622Y78041D01*
D02*
G37*
G36*
X375316Y77605D02*
X375145Y77423D01*
X374991Y77237D01*
X374856Y77048D01*
X374739Y76855D01*
X374641Y76659D01*
X374561Y76459D01*
X374499Y76256D01*
X374455Y76050D01*
X374430Y75840D01*
X374423Y75627D01*
X371924Y78127D01*
X372137Y78134D01*
X372347Y78159D01*
X372553Y78202D01*
X372756Y78264D01*
X372956Y78344D01*
X373152Y78443D01*
X373344Y78560D01*
X373534Y78695D01*
X373719Y78848D01*
X373902Y79019D01*
X375316Y77605D01*
D02*
G37*
G36*
X488197Y73232D02*
X488041Y73378D01*
X487875Y73509D01*
X487698Y73624D01*
X487511Y73724D01*
X487313Y73808D01*
X487105Y73877D01*
X486886Y73931D01*
X486657Y73969D01*
X486417Y73992D01*
X486166Y74000D01*
Y76000D01*
X486417Y76008D01*
X486657Y76031D01*
X486886Y76069D01*
X487105Y76123D01*
X487313Y76192D01*
X487511Y76276D01*
X487698Y76376D01*
X487875Y76491D01*
X488041Y76622D01*
X488197Y76768D01*
Y73232D01*
D02*
G37*
G36*
X484975Y62475D02*
X484762Y62468D01*
X484552Y62443D01*
X484345Y62399D01*
X484142Y62337D01*
X483943Y62257D01*
X483747Y62159D01*
X483554Y62042D01*
X483365Y61907D01*
X483179Y61754D01*
X482996Y61582D01*
X481582Y62996D01*
X481754Y63179D01*
X481907Y63365D01*
X482042Y63554D01*
X482159Y63747D01*
X482257Y63943D01*
X482337Y64142D01*
X482399Y64345D01*
X482443Y64552D01*
X482468Y64762D01*
X482475Y64975D01*
X484975Y62475D01*
D02*
G37*
G36*
X481479Y66416D02*
X481205Y65755D01*
Y65249D01*
X481101Y65020D01*
X481096Y64866D01*
X481085Y64776D01*
X481067Y64688D01*
X481040Y64600D01*
X481003Y64508D01*
X480955Y64412D01*
X480893Y64310D01*
X480816Y64202D01*
X480722Y64088D01*
X480581Y63938D01*
X480530Y63803D01*
X472468Y55741D01*
X471116Y56186D01*
X470717Y57150D01*
X469650Y58217D01*
X468255Y58795D01*
X466745D01*
X465350Y58217D01*
X464283Y57150D01*
X463705Y55755D01*
Y55249D01*
X463601Y55020D01*
X463596Y54866D01*
X463585Y54776D01*
X463567Y54688D01*
X463540Y54600D01*
X463503Y54508D01*
X463455Y54412D01*
X463393Y54310D01*
X463316Y54202D01*
X463222Y54088D01*
X463081Y53938D01*
X463030Y53803D01*
X456541Y47315D01*
X449341D01*
X448521Y48584D01*
X448795Y49245D01*
Y49751D01*
X448899Y49980D01*
X448904Y50134D01*
X448915Y50224D01*
X448933Y50312D01*
X448960Y50400D01*
X448997Y50492D01*
X449045Y50588D01*
X449107Y50690D01*
X449184Y50798D01*
X449278Y50912D01*
X449419Y51062D01*
X449470Y51197D01*
X465959Y67685D01*
X480659D01*
X481479Y66416D01*
D02*
G37*
G36*
X443418Y57004D02*
X443246Y56821D01*
X443093Y56635D01*
X442958Y56446D01*
X442841Y56253D01*
X442743Y56057D01*
X442663Y55858D01*
X442601Y55655D01*
X442557Y55448D01*
X442532Y55238D01*
X442525Y55025D01*
X440025Y57525D01*
X440238Y57532D01*
X440448Y57557D01*
X440655Y57601D01*
X440858Y57663D01*
X441057Y57743D01*
X441253Y57841D01*
X441446Y57958D01*
X441635Y58093D01*
X441821Y58246D01*
X442004Y58418D01*
X443418Y57004D01*
D02*
G37*
G36*
X423508Y56083D02*
X423531Y55843D01*
X423569Y55614D01*
X423623Y55395D01*
X423692Y55187D01*
X423776Y54989D01*
X423876Y54802D01*
X423991Y54625D01*
X424122Y54459D01*
X424268Y54303D01*
X420732D01*
X420878Y54459D01*
X421009Y54625D01*
X421124Y54802D01*
X421224Y54989D01*
X421308Y55187D01*
X421377Y55395D01*
X421431Y55614D01*
X421469Y55843D01*
X421492Y56083D01*
X421500Y56333D01*
X423500D01*
X423508Y56083D01*
D02*
G37*
G36*
X467475Y52475D02*
X467262Y52468D01*
X467052Y52443D01*
X466845Y52399D01*
X466642Y52337D01*
X466443Y52257D01*
X466247Y52159D01*
X466054Y52042D01*
X465865Y51907D01*
X465679Y51754D01*
X465496Y51582D01*
X464082Y52996D01*
X464254Y53179D01*
X464407Y53365D01*
X464542Y53554D01*
X464659Y53747D01*
X464757Y53943D01*
X464837Y54142D01*
X464899Y54345D01*
X464943Y54552D01*
X464968Y54762D01*
X464975Y54975D01*
X467475Y52475D01*
D02*
G37*
G36*
X448418Y52004D02*
X448246Y51821D01*
X448093Y51635D01*
X447958Y51446D01*
X447841Y51253D01*
X447743Y51057D01*
X447663Y50858D01*
X447601Y50655D01*
X447557Y50448D01*
X447532Y50238D01*
X447525Y50025D01*
X445025Y52525D01*
X445238Y52532D01*
X445448Y52557D01*
X445655Y52601D01*
X445858Y52663D01*
X446057Y52743D01*
X446253Y52841D01*
X446446Y52958D01*
X446635Y53093D01*
X446821Y53246D01*
X447004Y53418D01*
X448418Y52004D01*
D02*
G37*
G36*
X263779Y33261D02*
X263804Y33051D01*
X263848Y32845D01*
X263910Y32642D01*
X263990Y32442D01*
X264088Y32246D01*
X264205Y32053D01*
X264340Y31864D01*
X264493Y31678D01*
X264665Y31496D01*
X263251Y30082D01*
X263068Y30253D01*
X262882Y30406D01*
X262693Y30542D01*
X262500Y30658D01*
X262304Y30757D01*
X262105Y30837D01*
X261902Y30899D01*
X261695Y30942D01*
X261486Y30968D01*
X261272Y30975D01*
X263772Y33474D01*
X263779Y33261D01*
D02*
G37*
G36*
X251282D02*
X251308Y33051D01*
X251351Y32845D01*
X251413Y32642D01*
X251493Y32442D01*
X251591Y32246D01*
X251708Y32053D01*
X251843Y31864D01*
X251996Y31678D01*
X252168Y31496D01*
X250754Y30082D01*
X250571Y30253D01*
X250386Y30406D01*
X250196Y30542D01*
X250004Y30658D01*
X249807Y30757D01*
X249608Y30837D01*
X249405Y30899D01*
X249199Y30942D01*
X248989Y30968D01*
X248776Y30975D01*
X251275Y33474D01*
X251282Y33261D01*
D02*
G37*
G36*
X238785Y33261D02*
X238811Y33051D01*
X238854Y32845D01*
X238916Y32642D01*
X238996Y32442D01*
X239095Y32246D01*
X239211Y32053D01*
X239347Y31864D01*
X239500Y31678D01*
X239671Y31496D01*
X238257Y30082D01*
X238075Y30253D01*
X237889Y30406D01*
X237700Y30542D01*
X237507Y30658D01*
X237311Y30757D01*
X237111Y30837D01*
X236908Y30899D01*
X236702Y30942D01*
X236492Y30968D01*
X236279Y30975D01*
X238778Y33474D01*
X238785Y33261D01*
D02*
G37*
G36*
X56145Y129520D02*
X58420Y128577D01*
X60467Y127209D01*
X61337Y126339D01*
X62208Y125468D01*
X63576Y123421D01*
X64518Y121146D01*
X64999Y118731D01*
Y116269D01*
X64518Y113854D01*
X63576Y111579D01*
X62208Y109532D01*
X61337Y108661D01*
X60654Y107907D01*
X59525Y106217D01*
X58747Y104339D01*
X58350Y102345D01*
X58300Y101328D01*
Y75000D01*
X57829D01*
X57944Y74569D01*
X58817Y72548D01*
X60071Y70355D01*
X61708Y67987D01*
X63728Y65447D01*
X66129Y62732D01*
X68913Y59844D01*
X62174Y45370D01*
X58949Y48491D01*
X53250Y53355D01*
X50776Y55099D01*
X48552Y56384D01*
X46578Y57210D01*
X44855Y57577D01*
X43382Y57485D01*
X42159Y56934D01*
X41187Y55924D01*
X54232Y75000D01*
X28000D01*
Y100158D01*
Y102660D01*
X28976Y107567D01*
X30891Y112190D01*
X33671Y116350D01*
X43660Y126339D01*
X43660Y126339D01*
Y126339D01*
X44531Y127209D01*
X46578Y128577D01*
X48853Y129520D01*
X51268Y130000D01*
X53730D01*
X56145Y129520D01*
D02*
G37*
G36*
X393197Y68232D02*
X393041Y68378D01*
X392875Y68509D01*
X392698Y68624D01*
X392511Y68724D01*
X392313Y68808D01*
X392105Y68877D01*
X391886Y68931D01*
X391657Y68969D01*
X391417Y68992D01*
X391166Y69000D01*
Y71000D01*
X391417Y71008D01*
X391657Y71031D01*
X391886Y71069D01*
X392105Y71123D01*
X392313Y71192D01*
X392511Y71276D01*
X392698Y71376D01*
X392875Y71491D01*
X393041Y71622D01*
X393197Y71768D01*
Y68232D01*
D02*
G37*
G36*
X339459Y54122D02*
X339625Y53991D01*
X339802Y53876D01*
X339989Y53776D01*
X340187Y53692D01*
X340395Y53623D01*
X340614Y53569D01*
X340843Y53531D01*
X341083Y53508D01*
X341334Y53500D01*
Y51500D01*
X341083Y51492D01*
X340843Y51469D01*
X340614Y51431D01*
X340395Y51377D01*
X340187Y51308D01*
X339989Y51224D01*
X339802Y51124D01*
X339625Y51009D01*
X339459Y50878D01*
X339303Y50732D01*
Y54268D01*
X339459Y54122D01*
D02*
G37*
D10*
X402184Y207184D02*
X409684D01*
X163800Y197666D02*
X399376D01*
X404123Y202413D01*
X404913D01*
X177307Y191570D02*
X405930D01*
X410000Y187500D01*
X167376Y194618D02*
X407118D01*
X410000Y197500D01*
X112758Y140000D02*
X167376Y194618D01*
X125738Y140000D02*
X177307Y191570D01*
X395714Y200714D02*
X402184Y207184D01*
X104438Y144684D02*
X160467Y200714D01*
X106256Y140122D02*
X163800Y197666D01*
X160467Y200714D02*
X395714D01*
X99754Y140000D02*
Y140122D01*
X104316Y144684D01*
X104438D01*
X106256Y140000D02*
Y140122D01*
X409684Y207184D02*
X410000Y207500D01*
D13*
X422500Y195000D02*
X434120Y206620D01*
X455065D02*
X467973Y219527D01*
X434120Y206620D02*
X455065D01*
X467973Y219527D02*
Y243999D01*
X459472Y252500D02*
X467973Y243999D01*
X450000Y252500D02*
X459472D01*
X230000Y290000D02*
Y335000D01*
X240000Y295000D02*
Y335000D01*
X386180Y237500D02*
Y261320D01*
X250000Y270000D02*
X377500D01*
X386180Y261320D01*
X382500Y280000D02*
X392500Y270000D01*
X255000Y280000D02*
X382500D01*
X392500Y237500D02*
Y270000D01*
X240000Y295000D02*
X255000Y280000D01*
X230000Y290000D02*
X250000Y270000D01*
X355000Y231000D02*
X434641D01*
X442420Y238779D01*
X247090Y22662D02*
X459036D01*
X236254Y33500D02*
X247090Y22662D01*
X261247Y33500D02*
X265544Y29202D01*
X256317Y25933D02*
X457681D01*
X265544Y29202D02*
X456327D01*
X499795Y72671D01*
X248750Y33500D02*
X256317Y25933D01*
X459036Y22662D02*
X506335Y69962D01*
X457681Y25933D02*
X503065Y71316D01*
X490000Y192500D02*
X506335Y176165D01*
Y69962D02*
Y176165D01*
X503065Y71316D02*
Y164435D01*
X490000Y177500D02*
X503065Y164435D01*
X490000Y162500D02*
X499795Y152705D01*
Y72671D02*
Y152705D01*
X420000Y40000D02*
X460000D01*
X485000Y65000D01*
X285000Y255000D02*
X296000Y244000D01*
X265000Y255000D02*
X285000D01*
X296000Y244000D02*
X355000D01*
X260000Y250000D02*
X265000Y255000D01*
X260000Y242500D02*
Y250000D01*
X442127Y222798D02*
X452261Y232931D01*
X68872Y219528D02*
X446413D01*
X275000Y245900D02*
X294832Y226068D01*
X42500Y245900D02*
X68872Y219528D01*
X133202Y222798D02*
X442127D01*
X446413Y219528D02*
X457500Y230615D01*
X294832Y226068D02*
X438560D01*
X447466Y234974D01*
X125000Y231000D02*
X133202Y222798D01*
X445000Y50000D02*
X465000Y70000D01*
X492500D02*
X495000Y72500D01*
X465000Y70000D02*
X492500D01*
X495000Y72500D02*
Y80000D01*
X422500Y52500D02*
Y195000D01*
X412500Y47500D02*
Y75000D01*
Y47500D02*
X420000Y40000D01*
X410000Y172500D02*
X417500Y165000D01*
Y50000D02*
Y165000D01*
X407500Y80000D02*
X412500Y75000D01*
X417500Y50000D02*
X422500Y45000D01*
X457500D01*
X467500Y55000D01*
X440000D02*
X460000Y75000D01*
X490000D01*
X371898Y75602D02*
X376297Y80000D01*
X407500D01*
X457500Y230615D02*
Y235000D01*
X452261Y232931D02*
Y238618D01*
X452473Y238830D01*
X372500Y52500D02*
X390000Y70000D01*
X395000D01*
X337500Y52500D02*
X372500D01*
D16*
X475000Y207500D02*
Y267500D01*
X462500Y280000D02*
X475000Y267500D01*
X462500Y195000D02*
X475000Y207500D01*
X440000Y195000D02*
X462500D01*
X435000Y190000D02*
X440000Y195000D01*
X435000Y150000D02*
Y190000D01*
X122500Y242500D02*
X155000D01*
X109100Y229100D02*
X122500Y242500D01*
X67500Y229100D02*
X109100D01*
D17*
X464644Y187547D02*
X482500Y205403D01*
X467500Y152500D02*
Y186451D01*
X470357Y185357D02*
X488088Y203088D01*
X482500Y205403D02*
Y287344D01*
X467500Y186451D02*
X485294Y204245D01*
X464644Y157144D02*
Y187547D01*
X470357Y157143D02*
Y185357D01*
X488088Y203088D02*
Y321992D01*
X485294Y204245D02*
Y304786D01*
X460000Y152500D02*
X464644Y157144D01*
X470357Y157143D02*
X475000Y152500D01*
X480000Y289844D02*
Y290000D01*
Y289844D02*
X482500Y287344D01*
X480000Y310080D02*
X485294Y304786D01*
X480000Y330080D02*
X488088Y321992D01*
X480000Y330080D02*
X480000D01*
D77*
X320210Y48520D02*
D03*
X379790D02*
D03*
D85*
X180000Y42500D02*
G03*
X193426Y55926I0J13426D01*
G01*
X68211Y49939D02*
G03*
X86171Y42500I17960J17960D01*
G01*
X193426Y55926D02*
Y84500D01*
X43150Y75000D02*
X68211Y49939D01*
X86171Y42500D02*
X180000D01*
D86*
X205000Y295000D02*
D03*
X507500Y27500D02*
D03*
Y382500D02*
D03*
D87*
X393205Y12024D02*
D03*
X306795D02*
D03*
D88*
X393205Y53832D02*
D03*
X306795D02*
D03*
D89*
X22499Y17500D02*
D03*
X132499Y17500D02*
D03*
D90*
X102499Y117500D02*
D03*
X52499D02*
D03*
D91*
X207500Y137500D02*
D03*
X215000Y127500D02*
D03*
X210000Y122500D02*
D03*
X212500Y112500D02*
D03*
X207500Y102500D02*
D03*
X215000Y97500D02*
D03*
X210000Y90000D02*
D03*
X197500Y145000D02*
D03*
X157500D02*
D03*
X167500Y162500D02*
D03*
X177500Y147500D02*
D03*
X215000Y145000D02*
D03*
X187500Y157500D02*
D03*
X220000Y165000D02*
D03*
X232500D02*
D03*
X205000Y155000D02*
D03*
X225000Y152500D02*
D03*
X202500Y170000D02*
D03*
X220000Y175000D02*
D03*
X185000Y172500D02*
D03*
X255000Y180000D02*
D03*
Y170000D02*
D03*
Y160000D02*
D03*
Y150000D02*
D03*
X253884Y13685D02*
D03*
X263893Y11756D02*
D03*
X235916Y13082D02*
D03*
X222290Y26106D02*
D03*
X221807Y39732D02*
D03*
X215898Y51068D02*
D03*
X221807Y57941D02*
D03*
X214693Y63247D02*
D03*
X251793Y74206D02*
D03*
X244463Y72549D02*
D03*
X237742Y73358D02*
D03*
X263978Y57487D02*
D03*
X257581Y63317D02*
D03*
X264869Y63884D02*
D03*
X295369Y73908D02*
D03*
X286528Y48669D02*
D03*
X294941Y39543D02*
D03*
X312623Y36691D02*
D03*
X324031Y37974D02*
D03*
X338433Y40398D02*
D03*
X386444Y99290D02*
D03*
X379382Y85723D02*
D03*
X338680Y96502D02*
D03*
X371762Y98732D02*
D03*
X356708Y90183D02*
D03*
X349274Y100033D02*
D03*
X328087Y90183D02*
D03*
X321024Y97803D02*
D03*
X307643Y87395D02*
D03*
X304855Y99847D02*
D03*
X434865Y124038D02*
D03*
X443353Y130499D02*
D03*
X472364Y121251D02*
D03*
X471478Y131259D02*
D03*
X482246Y120871D02*
D03*
X483006Y132146D02*
D03*
X449787Y87697D02*
D03*
X446888Y77361D02*
D03*
X438190Y81394D02*
D03*
X439198Y89966D02*
D03*
X444997Y96143D02*
D03*
X432769Y97151D02*
D03*
X311996Y132993D02*
D03*
X290280Y133242D02*
D03*
X304383Y125130D02*
D03*
X324226Y117393D02*
D03*
X340076Y119764D02*
D03*
X356924Y117393D02*
D03*
X365660Y118641D02*
D03*
X379513Y116519D02*
D03*
X389123Y120513D02*
D03*
X397500Y117500D02*
D03*
X459018Y188877D02*
D03*
X442500Y180000D02*
D03*
X450000D02*
D03*
X457500Y182500D02*
D03*
X452500Y187500D02*
D03*
X445000D02*
D03*
X462500Y280000D02*
D03*
X435000Y150000D02*
D03*
X230000Y335000D02*
D03*
X240000D02*
D03*
X386180Y237500D02*
D03*
X392500D02*
D03*
X410000Y207500D02*
D03*
X405000Y202500D02*
D03*
X410000Y197500D02*
D03*
Y187500D02*
D03*
X261247Y33500D02*
D03*
X248750D02*
D03*
X236254D02*
D03*
X485000Y65000D02*
D03*
X480000Y330080D02*
D03*
Y310080D02*
D03*
Y290000D02*
D03*
X490000Y162500D02*
D03*
Y177500D02*
D03*
Y192500D02*
D03*
X260000Y242500D02*
D03*
X355000Y244000D02*
D03*
X155000Y242500D02*
D03*
X67500Y229100D02*
D03*
X67243Y206736D02*
D03*
Y212423D02*
D03*
X112760Y206736D02*
D03*
Y212423D02*
D03*
X297243Y206736D02*
D03*
Y212423D02*
D03*
X342760D02*
D03*
Y206736D02*
D03*
X495000Y80000D02*
D03*
X450000Y252500D02*
D03*
X422500Y52500D02*
D03*
X490000Y75000D02*
D03*
X371898Y75602D02*
D03*
X275000Y245900D02*
D03*
X42500Y245900D02*
D03*
X355000Y231000D02*
D03*
X125000Y231000D02*
D03*
X106256Y140000D02*
D03*
X125738D02*
D03*
X442420Y238779D02*
D03*
X447466Y234974D02*
D03*
X452473Y238830D02*
D03*
X457500Y235000D02*
D03*
X99754Y140000D02*
D03*
X112758D02*
D03*
X475000Y152500D02*
D03*
X467500D02*
D03*
X460000D02*
D03*
X467500Y55000D02*
D03*
X410000Y172500D02*
D03*
X395000Y70000D02*
D03*
X337500Y52500D02*
D03*
X445000Y50000D02*
D03*
X440000Y55000D02*
D03*
X190000Y70000D02*
D03*
X197500D02*
D03*
X190000Y85000D02*
D03*
X197500D02*
D03*
X190000Y77500D02*
D03*
X197500D02*
D03*
D92*
X334248Y183655D02*
D03*
Y173647D02*
D03*
X324266Y183655D02*
D03*
Y173647D02*
D03*
X314258Y183655D02*
D03*
Y173647D02*
D03*
X304251Y183655D02*
D03*
Y173647D02*
D03*
X74989Y174996D02*
D03*
Y185004D02*
D03*
X84996Y174996D02*
D03*
Y185004D02*
D03*
X95004Y174996D02*
D03*
Y185004D02*
D03*
X104986Y174996D02*
D03*
Y185004D02*
D03*
D93*
X32500Y195000D02*
G03*
X37803Y182197I18107J0D01*
G01*
X47200Y209700D02*
G03*
X32500Y195000I0J-14700D01*
G01*
X47200Y209700D02*
X342500D01*
X37803Y182197D02*
X102500Y117500D01*
D94*
X111850Y75000D02*
D03*
X43150D02*
D03*
M02*
