G04*
G04 #@! TF.GenerationSoftware,Altium Limited,Altium Designer,22.7.1 (60)*
G04*
G04 Layer_Color=8388736*
%FSLAX44Y44*%
%MOMM*%
G71*
G04*
G04 #@! TF.SameCoordinates,DE4C8CE6-A766-4DDB-9AE5-6163675FD0FB*
G04*
G04*
G04 #@! TF.FilePolarity,Positive*
G04*
G01*
G75*
%ADD100C,0.0508*%
G36*
X28182Y183610D02*
Y186150D01*
X29452D01*
X29705D01*
X30171Y185957D01*
X30529Y185599D01*
X30722Y185133D01*
Y184880D01*
D01*
Y183610D01*
X28182D01*
D02*
G37*
G36*
X278182Y56150D02*
Y58690D01*
X279452D01*
X279705D01*
X280171Y58497D01*
X280529Y58139D01*
X280722Y57673D01*
Y57420D01*
D01*
Y56150D01*
X278182D01*
D02*
G37*
G36*
X258182Y183610D02*
Y186150D01*
X259452D01*
X259705D01*
X260171Y185957D01*
X260529Y185599D01*
X260722Y185133D01*
Y184880D01*
D01*
Y183610D01*
X258182D01*
D02*
G37*
G36*
X461110Y299318D02*
X463650D01*
Y298048D01*
Y297795D01*
X463457Y297329D01*
X463099Y296971D01*
X462633Y296778D01*
X462380D01*
D01*
X461110D01*
Y299318D01*
D02*
G37*
G36*
Y319318D02*
X463650D01*
Y318048D01*
Y317795D01*
X463457Y317329D01*
X463099Y316971D01*
X462633Y316778D01*
X462380D01*
D01*
X461110D01*
Y319318D01*
D02*
G37*
G36*
Y339318D02*
X463650D01*
Y338048D01*
Y337795D01*
X463457Y337329D01*
X463099Y336971D01*
X462633Y336778D01*
X462380D01*
D01*
X461110D01*
Y339318D01*
D02*
G37*
D100*
X423610Y288182D02*
X441390D01*
X423610D02*
Y296818D01*
X441390Y288182D02*
Y296818D01*
X423610D02*
X441390D01*
X411818Y263610D02*
Y281390D01*
X403182Y263610D02*
X411818D01*
X403182Y281390D02*
X411818D01*
X403182Y263610D02*
Y281390D01*
X421818Y263610D02*
Y281390D01*
X413182Y263610D02*
X421818D01*
X413182Y281390D02*
X421818D01*
X413182Y263610D02*
Y281390D01*
X234318Y338610D02*
Y356390D01*
X225682Y338610D02*
X234318D01*
X225682Y356390D02*
X234318D01*
X225682Y338610D02*
Y356390D01*
X244318Y338610D02*
Y356390D01*
X235682Y338610D02*
X244318D01*
X235682Y356390D02*
X244318D01*
X235682Y338610D02*
Y356390D01*
X496818Y116110D02*
Y133890D01*
X488182Y116110D02*
X496818D01*
X488182Y133890D02*
X496818D01*
X488182Y116110D02*
Y133890D01*
X498182Y116110D02*
Y133890D01*
X506818D01*
X498182Y116110D02*
X506818D01*
Y133890D01*
X421956Y5613D02*
Y23393D01*
X413320Y5613D02*
X421956D01*
X413320Y23393D02*
X421956D01*
X413320Y5613D02*
Y23393D01*
X411217Y5648D02*
Y23428D01*
X402581Y5648D02*
X411217D01*
X402581Y23428D02*
X411217D01*
X402581Y5648D02*
Y23428D01*
X211932Y68488D02*
Y86267D01*
X220568D01*
X211932Y68488D02*
X220568D01*
X220568Y86267D01*
X266932Y75988D02*
Y93767D01*
X275568D01*
X266932Y75988D02*
X275568D01*
X275568Y93767D02*
X275568Y75988D01*
X224860Y48060D02*
X242640Y48060D01*
X224860Y48060D02*
Y56695D01*
X242640Y48060D02*
Y56695D01*
X224860D02*
X242640D01*
X244860D02*
X262640D01*
Y48060D02*
Y56695D01*
X244860Y48060D02*
Y56695D01*
Y48060D02*
X262640Y48060D01*
X278182Y76150D02*
Y93930D01*
X286818D01*
X278182Y76150D02*
X286818D01*
Y93930D01*
X278182Y56150D02*
Y73930D01*
X286818D01*
X278182Y56150D02*
X286818D01*
Y73930D01*
X266932Y55988D02*
Y73767D01*
X275568D01*
X266932Y55988D02*
X275568D01*
X275568Y73767D01*
X448610Y120682D02*
X466390D01*
X448610D02*
Y129318D01*
X466390Y120682D02*
Y129318D01*
X448610D02*
X466390D01*
X473182Y96110D02*
X473182Y113890D01*
X481818Y113890D01*
X473182Y96110D02*
X481818Y96110D01*
Y113890D01*
X423610Y249318D02*
X441390D01*
Y240682D02*
Y249318D01*
X423610Y240682D02*
Y249318D01*
Y240682D02*
X441390D01*
X451110Y13182D02*
X468890D01*
X451110Y21818D02*
X451110Y13182D01*
X468890D02*
Y21818D01*
X451110Y21818D02*
X468890Y21818D01*
X431110D02*
X448890Y21818D01*
X448890Y13182D02*
X448890Y21818D01*
X431110Y13182D02*
Y21818D01*
Y13182D02*
X448890D01*
X453610Y300682D02*
X471390D01*
X453610D02*
Y309318D01*
X471390Y300682D02*
Y309318D01*
X453610D02*
X471390D01*
X461110Y319318D02*
X478890D01*
Y310682D02*
Y319318D01*
X461110Y310682D02*
Y319318D01*
Y310682D02*
X478890D01*
X453610Y329318D02*
X471390D01*
Y320682D02*
Y329318D01*
X453610Y320682D02*
Y329318D01*
Y320682D02*
X471390D01*
X461110Y330682D02*
X478890D01*
X461110D02*
Y339318D01*
X478890Y330682D02*
Y339318D01*
X461110D02*
X478890D01*
X453610Y289318D02*
X471390D01*
Y280682D02*
Y289318D01*
X453610Y280682D02*
Y289318D01*
Y280682D02*
X471390D01*
X431110Y140682D02*
X448890D01*
X431110D02*
Y149318D01*
X448890Y140682D02*
Y149318D01*
X431110D02*
X448890D01*
X461110Y290682D02*
X478890D01*
X461110D02*
Y299318D01*
X478890Y290682D02*
Y299318D01*
X461110D02*
X478890D01*
X28182Y163610D02*
Y181390D01*
X36818D01*
X28182Y163610D02*
X36818D01*
Y181390D01*
Y183610D02*
Y201390D01*
X28182Y183610D02*
X36818D01*
X28182Y201390D02*
X36818D01*
X28182Y183610D02*
Y201390D01*
X258182Y163610D02*
Y181390D01*
X266818D01*
X258182Y163610D02*
X266818D01*
Y181390D01*
Y183610D02*
Y201390D01*
X258182Y183610D02*
X266818D01*
X258182Y201390D02*
X266818D01*
X258182Y183610D02*
Y201390D01*
Y143610D02*
Y161390D01*
X266818D01*
X258182Y143610D02*
X266818D01*
Y161390D01*
X263182Y228610D02*
Y246390D01*
X271818D01*
X263182Y228610D02*
X271818D01*
Y246390D01*
X28182Y143610D02*
Y161390D01*
X36818D01*
X28182Y143610D02*
X36818D01*
Y161390D01*
X151818Y176110D02*
Y193890D01*
X143182Y176110D02*
X151818D01*
X143182Y193890D02*
X151818D01*
X143182Y176110D02*
Y193890D01*
X471110Y149318D02*
X488890D01*
Y140682D02*
Y149318D01*
X471110Y140682D02*
Y149318D01*
Y140682D02*
X488890D01*
X381818Y176110D02*
Y193890D01*
X373182Y176110D02*
X381818D01*
X373182Y193890D02*
X381818D01*
X373182Y176110D02*
Y193890D01*
X143182Y196110D02*
Y213890D01*
X151818D01*
X143182Y196110D02*
X151818D01*
Y213890D01*
X28182Y228610D02*
Y246390D01*
X36818D01*
X28182Y228610D02*
X36818D01*
Y246390D01*
X143182Y228610D02*
Y246390D01*
X151818Y246390D01*
X143182Y228610D02*
X151818Y228610D01*
Y246390D01*
X406818Y68610D02*
Y86390D01*
X398182Y68610D02*
X406818D01*
X398182Y86390D02*
X406818D01*
X398182Y68610D02*
Y86390D01*
X443610Y349318D02*
X461390Y349318D01*
Y340682D02*
Y349318D01*
X443610Y340682D02*
Y349318D01*
Y340682D02*
X461390D01*
X443610Y359318D02*
X461390D01*
Y350682D02*
Y359318D01*
X443610Y350682D02*
Y359318D01*
Y350682D02*
X461390D01*
X224318Y338610D02*
Y356390D01*
X215682Y338610D02*
X224318Y338610D01*
X215682Y356390D02*
X224318Y356390D01*
X215682Y338610D02*
Y356390D01*
X406818Y91110D02*
Y108890D01*
X398182Y91110D02*
X406818D01*
X398182Y108890D02*
X406818D01*
X398182Y91110D02*
Y108890D01*
X451110Y140682D02*
X468890D01*
X451110D02*
Y149318D01*
X468890Y140682D02*
Y149318D01*
X451110D02*
X468890D01*
X373182Y228610D02*
Y246390D01*
X381818D01*
X373182Y228610D02*
X381818D01*
Y246390D01*
X373182Y196110D02*
Y213890D01*
X381818D01*
X373182Y196110D02*
X381818D01*
Y213890D01*
X214318Y356390D02*
X214318Y338610D01*
X205682D02*
X214318D01*
X205682Y356390D02*
X214318D01*
X205682Y338610D02*
Y356390D01*
X446110Y240682D02*
X463890D01*
X446110D02*
Y249318D01*
X463890Y240682D02*
Y249318D01*
X446110D02*
X463890D01*
M02*
